M48
; DRILL file {KiCad (6.0.4)} date Thu 05 May 2022 08:37:14 PM EDT
; FORMAT={-:-/ absolute / inch / decimal}
; #@! TF.CreationDate,2022-05-05T20:37:14-04:00
; #@! TF.GenerationSoftware,Kicad,Pcbnew,(6.0.4)
; #@! TF.FileFunction,Plated,1,2,PTH
FMAT,2
INCH
; #@! TA.AperFunction,Plated,PTH,ViaDrill
T1C0.0157
; #@! TA.AperFunction,Plated,PTH,ComponentDrill
T2C0.0315
; #@! TA.AperFunction,Plated,PTH,ComponentDrill
T3C0.0394
%
G90
G05
T1
X2.7996Y-1.8246
X2.8996Y-1.8746
X2.9996Y-1.9246
X3.25Y-2.0
X3.3246Y-1.8246
X3.375Y-2.575
X3.375Y-2.8
X3.375Y-3.025
X3.375Y-3.275
X3.4246Y-1.8746
X3.5746Y-1.9246
X3.85Y-1.975
X3.9496Y-1.8246
X4.0496Y-1.8746
X4.1496Y-1.9246
X4.275Y-2.625
X4.275Y-2.9
X4.275Y-3.125
X4.3Y-2.4
X4.525Y-2.0
X4.5746Y-1.8246
X4.6746Y-1.8746
X4.7746Y-1.9246
X5.075Y-2.025
X5.1496Y-1.8246
X5.2496Y-1.8746
X5.3496Y-1.9246
T2
X4.95Y-2.125
X4.95Y-2.225
X4.95Y-2.325
X4.95Y-2.425
X4.95Y-2.525
X4.95Y-2.625
X4.95Y-2.725
X4.95Y-2.825
X4.95Y-2.925
X4.95Y-3.025
X4.95Y-3.125
X4.95Y-3.225
X5.55Y-2.125
X5.55Y-2.225
X5.55Y-2.325
X5.55Y-2.425
X5.55Y-2.525
X5.55Y-2.625
X5.55Y-2.725
X5.55Y-2.825
X5.55Y-2.925
X5.55Y-3.025
X5.55Y-3.125
X5.55Y-3.225
T3
X2.4722Y-1.8996
X2.4722Y-1.9996
X2.4722Y-2.0996
X2.4722Y-2.1996
X2.4722Y-2.4246
X2.4722Y-2.5246
X2.4722Y-2.6246
X2.4722Y-2.7246
X2.4722Y-2.9496
X2.4722Y-3.0496
X2.4722Y-3.1496
X2.4722Y-3.2496
X2.6746Y-1.6996
X2.7746Y-1.6996
X2.8746Y-1.6996
X2.9246Y-3.4528
X2.9746Y-1.6996
X3.0246Y-3.4528
X3.1246Y-3.4528
X3.2024Y-1.7
X3.2246Y-3.4528
X3.3024Y-1.7
X3.4024Y-1.7
X3.5024Y-1.7
X3.8274Y-1.7
X3.9274Y-1.7
X4.0274Y-1.7
X4.1274Y-1.7
X4.45Y-1.7
X4.55Y-1.7
X4.65Y-1.7
X4.75Y-1.7
X5.0246Y-1.6996
X5.1246Y-1.6996
X5.2246Y-1.6996
X5.3246Y-1.6996
T0
M30
