%TF.GenerationSoftware,KiCad,Pcbnew,(6.0.4)*%
%TF.CreationDate,2022-05-05T20:35:17-04:00*%
%TF.ProjectId,mainboard,6d61696e-626f-4617-9264-2e6b69636164,0.0*%
%TF.SameCoordinates,Original*%
%TF.FileFunction,Copper,L1,Top*%
%TF.FilePolarity,Positive*%
%FSLAX46Y46*%
G04 Gerber Fmt 4.6, Leading zero omitted, Abs format (unit mm)*
G04 Created by KiCad (PCBNEW (6.0.4)) date 2022-05-05 20:35:17*
%MOMM*%
%LPD*%
G01*
G04 APERTURE LIST*
G04 Aperture macros list*
%AMRoundRect*
0 Rectangle with rounded corners*
0 $1 Rounding radius*
0 $2 $3 $4 $5 $6 $7 $8 $9 X,Y pos of 4 corners*
0 Add a 4 corners polygon primitive as box body*
4,1,4,$2,$3,$4,$5,$6,$7,$8,$9,$2,$3,0*
0 Add four circle primitives for the rounded corners*
1,1,$1+$1,$2,$3*
1,1,$1+$1,$4,$5*
1,1,$1+$1,$6,$7*
1,1,$1+$1,$8,$9*
0 Add four rect primitives between the rounded corners*
20,1,$1+$1,$2,$3,$4,$5,0*
20,1,$1+$1,$4,$5,$6,$7,0*
20,1,$1+$1,$6,$7,$8,$9,0*
20,1,$1+$1,$8,$9,$2,$3,0*%
G04 Aperture macros list end*
%TA.AperFunction,ComponentPad*%
%ADD10R,1.700000X1.700000*%
%TD*%
%TA.AperFunction,ComponentPad*%
%ADD11O,1.700000X1.700000*%
%TD*%
%TA.AperFunction,SMDPad,CuDef*%
%ADD12RoundRect,0.250001X0.462499X1.074999X-0.462499X1.074999X-0.462499X-1.074999X0.462499X-1.074999X0*%
%TD*%
%TA.AperFunction,SMDPad,CuDef*%
%ADD13RoundRect,0.250000X0.400000X0.625000X-0.400000X0.625000X-0.400000X-0.625000X0.400000X-0.625000X0*%
%TD*%
%TA.AperFunction,SMDPad,CuDef*%
%ADD14RoundRect,0.150000X0.587500X0.150000X-0.587500X0.150000X-0.587500X-0.150000X0.587500X-0.150000X0*%
%TD*%
%TA.AperFunction,SMDPad,CuDef*%
%ADD15RoundRect,0.250000X-0.400000X-0.625000X0.400000X-0.625000X0.400000X0.625000X-0.400000X0.625000X0*%
%TD*%
%TA.AperFunction,ComponentPad*%
%ADD16R,1.600000X1.600000*%
%TD*%
%TA.AperFunction,ComponentPad*%
%ADD17O,1.600000X1.600000*%
%TD*%
%TA.AperFunction,ViaPad*%
%ADD18C,0.800000*%
%TD*%
%TA.AperFunction,Conductor*%
%ADD19C,0.250000*%
%TD*%
G04 APERTURE END LIST*
D10*
%TO.P,J6,1,Pin_1*%
%TO.N,GND*%
X62795000Y-55870000D03*
D11*
%TO.P,J6,2,Pin_2*%
%TO.N,unconnected-(J6-Pad2)*%
X62795000Y-53330000D03*
%TO.P,J6,3,Pin_3*%
%TO.N,unconnected-(J6-Pad3)*%
X62795000Y-50790000D03*
%TO.P,J6,4,Pin_4*%
%TO.N,/fsr1*%
X62795000Y-48250000D03*
%TD*%
D12*
%TO.P,D1,1,K*%
%TO.N,Net-(D1-Pad1)*%
X100547500Y-62230000D03*
%TO.P,D1,2,A*%
%TO.N,Net-(D1-Pad2)*%
X97572500Y-62230000D03*
%TD*%
%TO.P,D3,1,K*%
%TO.N,Net-(D3-Pad1)*%
X100547500Y-74295000D03*
%TO.P,D3,2,A*%
%TO.N,Net-(D3-Pad2)*%
X97572500Y-74295000D03*
%TD*%
%TO.P,D2,1,K*%
%TO.N,Net-(D2-Pad1)*%
X100547500Y-68580000D03*
%TO.P,D2,2,A*%
%TO.N,Net-(D2-Pad2)*%
X97572500Y-68580000D03*
%TD*%
%TO.P,D4,1,K*%
%TO.N,Net-(D4-Pad1)*%
X100547500Y-80010000D03*
%TO.P,D4,2,A*%
%TO.N,Net-(D4-Pad2)*%
X97572500Y-80010000D03*
%TD*%
D13*
%TO.P,R6,1*%
%TO.N,VCC*%
X84100000Y-80010000D03*
%TO.P,R6,2*%
%TO.N,/fsr4*%
X81000000Y-80010000D03*
%TD*%
D14*
%TO.P,Q1,1,G*%
%TO.N,/led_a*%
X106982500Y-63180000D03*
%TO.P,Q1,2,S*%
%TO.N,GND*%
X106982500Y-61280000D03*
%TO.P,Q1,3,D*%
%TO.N,Net-(D1-Pad1)*%
X105107500Y-62230000D03*
%TD*%
D13*
%TO.P,R4,1*%
%TO.N,VCC*%
X84100000Y-74083332D03*
%TO.P,R4,2*%
%TO.N,/fsr3*%
X81000000Y-74083332D03*
%TD*%
D14*
%TO.P,Q2,1,G*%
%TO.N,/led_b*%
X106982500Y-69530000D03*
%TO.P,Q2,2,S*%
%TO.N,GND*%
X106982500Y-67630000D03*
%TO.P,Q2,3,D*%
%TO.N,Net-(D2-Pad1)*%
X105107500Y-68580000D03*
%TD*%
D15*
%TO.P,R7,1*%
%TO.N,VCC*%
X90805000Y-74295000D03*
%TO.P,R7,2*%
%TO.N,Net-(D3-Pad2)*%
X93905000Y-74295000D03*
%TD*%
D10*
%TO.P,J1,1,Pin_1*%
%TO.N,/cs1*%
X127625000Y-43170000D03*
D11*
%TO.P,J1,2,Pin_2*%
%TO.N,/MOSI*%
X130165000Y-43170000D03*
%TO.P,J1,3,Pin_3*%
%TO.N,/MISO*%
X132705000Y-43170000D03*
%TO.P,J1,4,Pin_4*%
%TO.N,/SCK*%
X135245000Y-43170000D03*
%TD*%
D14*
%TO.P,Q4,1,G*%
%TO.N,/led_d*%
X106982500Y-80960000D03*
%TO.P,Q4,2,S*%
%TO.N,GND*%
X106982500Y-79060000D03*
%TO.P,Q4,3,D*%
%TO.N,Net-(D4-Pad1)*%
X105107500Y-80010000D03*
%TD*%
D10*
%TO.P,J5,1,Pin_1*%
%TO.N,/cs5*%
X67935000Y-43170000D03*
D11*
%TO.P,J5,2,Pin_2*%
%TO.N,/MOSI*%
X70475000Y-43170000D03*
%TO.P,J5,3,Pin_3*%
%TO.N,/MISO*%
X73015000Y-43170000D03*
%TO.P,J5,4,Pin_4*%
%TO.N,/SCK*%
X75555000Y-43170000D03*
%TD*%
D10*
%TO.P,J3,1,Pin_1*%
%TO.N,/cs3*%
X97215000Y-43180000D03*
D11*
%TO.P,J3,2,Pin_2*%
%TO.N,/MOSI*%
X99755000Y-43180000D03*
%TO.P,J3,3,Pin_3*%
%TO.N,/MISO*%
X102295000Y-43180000D03*
%TO.P,J3,4,Pin_4*%
%TO.N,/SCK*%
X104835000Y-43180000D03*
%TD*%
D10*
%TO.P,J9,1,Pin_1*%
%TO.N,GND*%
X81905000Y-87700000D03*
D11*
%TO.P,J9,2,Pin_2*%
%TO.N,unconnected-(J9-Pad2)*%
X79365000Y-87700000D03*
%TO.P,J9,3,Pin_3*%
%TO.N,unconnected-(J9-Pad3)*%
X76825000Y-87700000D03*
%TO.P,J9,4,Pin_4*%
%TO.N,/fsr4*%
X74285000Y-87700000D03*
%TD*%
D10*
%TO.P,J8,1,Pin_1*%
%TO.N,GND*%
X62795000Y-82540000D03*
D11*
%TO.P,J8,2,Pin_2*%
%TO.N,unconnected-(J8-Pad2)*%
X62795000Y-80000000D03*
%TO.P,J8,3,Pin_3*%
%TO.N,unconnected-(J8-Pad3)*%
X62795000Y-77460000D03*
%TO.P,J8,4,Pin_4*%
%TO.N,/fsr3*%
X62795000Y-74920000D03*
%TD*%
D15*
%TO.P,R5,1*%
%TO.N,VCC*%
X90880000Y-68580000D03*
%TO.P,R5,2*%
%TO.N,Net-(D2-Pad2)*%
X93980000Y-68580000D03*
%TD*%
D10*
%TO.P,J7,1,Pin_1*%
%TO.N,GND*%
X62795000Y-69205000D03*
D11*
%TO.P,J7,2,Pin_2*%
%TO.N,unconnected-(J7-Pad2)*%
X62795000Y-66665000D03*
%TO.P,J7,3,Pin_3*%
%TO.N,unconnected-(J7-Pad3)*%
X62795000Y-64125000D03*
%TO.P,J7,4,Pin_4*%
%TO.N,/fsr2*%
X62795000Y-61585000D03*
%TD*%
D13*
%TO.P,R2,1*%
%TO.N,VCC*%
X84100000Y-68156666D03*
%TO.P,R2,2*%
%TO.N,/fsr2*%
X81000000Y-68156666D03*
%TD*%
D10*
%TO.P,J2,1,Pin_1*%
%TO.N,/cs2*%
X113030000Y-43180000D03*
D11*
%TO.P,J2,2,Pin_2*%
%TO.N,/MOSI*%
X115570000Y-43180000D03*
%TO.P,J2,3,Pin_3*%
%TO.N,/MISO*%
X118110000Y-43180000D03*
%TO.P,J2,4,Pin_4*%
%TO.N,/SCK*%
X120650000Y-43180000D03*
%TD*%
D10*
%TO.P,J4,1,Pin_1*%
%TO.N,/cs4*%
X81340000Y-43180000D03*
D11*
%TO.P,J4,2,Pin_2*%
%TO.N,/MOSI*%
X83880000Y-43180000D03*
%TO.P,J4,3,Pin_3*%
%TO.N,/MISO*%
X86420000Y-43180000D03*
%TO.P,J4,4,Pin_4*%
%TO.N,/SCK*%
X88960000Y-43180000D03*
%TD*%
D16*
%TO.P,U2,1,D1/TX*%
%TO.N,unconnected-(U2-Pad1)*%
X140970000Y-81915000D03*
D17*
%TO.P,U2,2,D0/RX*%
%TO.N,unconnected-(U2-Pad2)*%
X140970000Y-79375000D03*
%TO.P,U2,3,GND*%
%TO.N,GND*%
X140970000Y-76835000D03*
%TO.P,U2,4,GND*%
X140970000Y-74295000D03*
%TO.P,U2,5,D2*%
%TO.N,/cs1*%
X140970000Y-71755000D03*
%TO.P,U2,6,~D3*%
%TO.N,/led_a*%
X140970000Y-69215000D03*
%TO.P,U2,7,D4/A6*%
%TO.N,/fsr4*%
X140970000Y-66675000D03*
%TO.P,U2,8,~D5*%
%TO.N,/led_b*%
X140970000Y-64135000D03*
%TO.P,U2,9,~D6/A7*%
%TO.N,/led_c*%
X140970000Y-61595000D03*
%TO.P,U2,10,D7*%
%TO.N,/cs2*%
X140970000Y-59055000D03*
%TO.P,U2,11,D8/A8*%
%TO.N,/fsr3*%
X140970000Y-56515000D03*
%TO.P,U2,12,~D9/A9*%
%TO.N,/led_d*%
X140970000Y-53975000D03*
%TO.P,U2,13,~D10/A10*%
%TO.N,/cs5*%
X125730000Y-53975000D03*
%TO.P,U2,14,D16*%
%TO.N,/MOSI*%
X125730000Y-56515000D03*
%TO.P,U2,15,D14*%
%TO.N,/MISO*%
X125730000Y-59055000D03*
%TO.P,U2,16,D15*%
%TO.N,/SCK*%
X125730000Y-61595000D03*
%TO.P,U2,17,D18/A0*%
%TO.N,/cs4*%
X125730000Y-64135000D03*
%TO.P,U2,18,D19/A1*%
%TO.N,/cs3*%
X125730000Y-66675000D03*
%TO.P,U2,19,D20/A2*%
%TO.N,/fsr1*%
X125730000Y-69215000D03*
%TO.P,U2,20,D21/A3*%
%TO.N,/fsr2*%
X125730000Y-71755000D03*
%TO.P,U2,21,VCC*%
%TO.N,VCC*%
X125730000Y-74295000D03*
%TO.P,U2,22,RST*%
%TO.N,unconnected-(U2-Pad22)*%
X125730000Y-76835000D03*
%TO.P,U2,23,GND*%
%TO.N,GND*%
X125730000Y-79375000D03*
%TO.P,U2,24,RAW*%
%TO.N,unconnected-(U2-Pad24)*%
X125730000Y-81915000D03*
%TD*%
D13*
%TO.P,R1,1*%
%TO.N,VCC*%
X84100000Y-62230000D03*
%TO.P,R1,2*%
%TO.N,/fsr1*%
X81000000Y-62230000D03*
%TD*%
D15*
%TO.P,R8,1*%
%TO.N,VCC*%
X90525000Y-80010000D03*
%TO.P,R8,2*%
%TO.N,Net-(D4-Pad2)*%
X93625000Y-80010000D03*
%TD*%
D14*
%TO.P,Q3,1,G*%
%TO.N,/led_c*%
X106982500Y-75245000D03*
%TO.P,Q3,2,S*%
%TO.N,GND*%
X106982500Y-73345000D03*
%TO.P,Q3,3,D*%
%TO.N,Net-(D3-Pad1)*%
X105107500Y-74295000D03*
%TD*%
D15*
%TO.P,R3,1*%
%TO.N,VCC*%
X90880000Y-62230000D03*
%TO.P,R3,2*%
%TO.N,Net-(D1-Pad2)*%
X93980000Y-62230000D03*
%TD*%
D18*
%TO.N,GND*%
X108585000Y-79375000D03*
X108585000Y-73660000D03*
X108585000Y-66675000D03*
X109220000Y-60960000D03*
%TO.N,/cs4*%
X82550000Y-50800000D03*
%TO.N,/cs3*%
X97790000Y-50165000D03*
%TO.N,/cs2*%
X114935000Y-50800000D03*
%TO.N,/cs1*%
X128905000Y-51435000D03*
%TO.N,/fsr1*%
X85725000Y-65405000D03*
%TO.N,/fsr2*%
X85725000Y-71120000D03*
%TO.N,/fsr4*%
X85725000Y-83185000D03*
%TO.N,/fsr3*%
X85725000Y-76835000D03*
%TO.N,/MOSI*%
X84445000Y-46345000D03*
X130800000Y-46345000D03*
X71110000Y-46345000D03*
X100320000Y-46345000D03*
X116195000Y-46345000D03*
%TO.N,/MISO*%
X73650000Y-47615000D03*
X118735000Y-47615000D03*
X133340000Y-47615000D03*
X102860000Y-47615000D03*
X86985000Y-47615000D03*
%TO.N,/SCK*%
X76190000Y-48885000D03*
X135880000Y-48885000D03*
X121275000Y-48885000D03*
X90795000Y-48885000D03*
X105400000Y-48885000D03*
%TD*%
D19*
%TO.N,GND*%
X109220000Y-60960000D02*
X107302500Y-60960000D01*
X107302500Y-60960000D02*
X106982500Y-61280000D01*
X108585000Y-66675000D02*
X107937500Y-66675000D01*
X107937500Y-66675000D02*
X106982500Y-67630000D01*
X106982500Y-73345000D02*
X108270000Y-73345000D01*
X108270000Y-73345000D02*
X108585000Y-73660000D01*
X106982500Y-79060000D02*
X108270000Y-79060000D01*
X108270000Y-79060000D02*
X108585000Y-79375000D01*
%TO.N,/cs5*%
X67935000Y-43170000D02*
X67935000Y-44270000D01*
X67935000Y-44270000D02*
X77640000Y-53975000D01*
X77640000Y-53975000D02*
X125730000Y-53975000D01*
%TO.N,/cs4*%
X81340000Y-49590000D02*
X82550000Y-50800000D01*
X81340000Y-43180000D02*
X81340000Y-49590000D01*
%TO.N,/cs1*%
X128905000Y-51435000D02*
X127625000Y-50155000D01*
X127625000Y-50155000D02*
X127625000Y-43170000D01*
%TO.N,/cs2*%
X114935000Y-50800000D02*
X113030000Y-48895000D01*
X113030000Y-48895000D02*
X113030000Y-43180000D01*
%TO.N,/cs3*%
X97215000Y-49590000D02*
X97790000Y-50165000D01*
X97215000Y-43180000D02*
X97215000Y-49590000D01*
%TO.N,/fsr4*%
X84175000Y-83185000D02*
X85725000Y-83185000D01*
X81000000Y-80010000D02*
X84175000Y-83185000D01*
%TO.N,/fsr3*%
X83751668Y-76835000D02*
X85725000Y-76835000D01*
X81000000Y-74083332D02*
X83751668Y-76835000D01*
%TO.N,/fsr2*%
X82550000Y-71120000D02*
X85725000Y-71120000D01*
X81000000Y-68156666D02*
X81000000Y-69570000D01*
X81000000Y-69570000D02*
X82550000Y-71120000D01*
%TO.N,/fsr1*%
X84175000Y-65405000D02*
X85725000Y-65405000D01*
X81000000Y-62230000D02*
X84175000Y-65405000D01*
%TO.N,/fsr4*%
X74285000Y-87700000D02*
X81000000Y-80985000D01*
X81000000Y-80985000D02*
X81000000Y-80010000D01*
%TO.N,/fsr3*%
X62795000Y-74920000D02*
X80163332Y-74920000D01*
X80163332Y-74920000D02*
X81000000Y-74083332D01*
%TO.N,/fsr2*%
X62795000Y-61585000D02*
X74428334Y-61585000D01*
X74428334Y-61585000D02*
X81000000Y-68156666D01*
%TO.N,/fsr1*%
X62795000Y-48250000D02*
X67020000Y-48250000D01*
X67020000Y-48250000D02*
X81000000Y-62230000D01*
%TO.N,VCC*%
X123190000Y-76835000D02*
X90805000Y-76835000D01*
X125730000Y-74295000D02*
X123190000Y-76835000D01*
%TO.N,/led_d*%
X106982500Y-80960000D02*
X107152011Y-80790489D01*
X107152011Y-80790489D02*
X141144811Y-80790489D01*
X141144811Y-80790489D02*
X149225000Y-72710300D01*
X149225000Y-72710300D02*
X149225000Y-62230000D01*
X149225000Y-62230000D02*
X140970000Y-53975000D01*
%TO.N,/led_c*%
X144780000Y-73025000D02*
X148590000Y-69215000D01*
X122555000Y-73025000D02*
X144780000Y-73025000D01*
X106982500Y-75245000D02*
X107157011Y-75419511D01*
X107157011Y-75419511D02*
X120160489Y-75419511D01*
X120160489Y-75419511D02*
X122555000Y-73025000D01*
X148590000Y-67309282D02*
X142875718Y-61595000D01*
X148590000Y-69215000D02*
X148590000Y-67309282D01*
X142875718Y-61595000D02*
X140970000Y-61595000D01*
%TO.N,/led_b*%
X106982500Y-69530000D02*
X111252989Y-65259511D01*
X139845489Y-65259511D02*
X140970000Y-64135000D01*
X111252989Y-65259511D02*
X139845489Y-65259511D01*
%TO.N,/led_a*%
X146050000Y-65405000D02*
X146050000Y-68580000D01*
X106982500Y-63180000D02*
X107152011Y-63010489D01*
X107152011Y-63010489D02*
X143655489Y-63010489D01*
X146050000Y-68580000D02*
X145415000Y-69215000D01*
X143655489Y-63010489D02*
X146050000Y-65405000D01*
X145415000Y-69215000D02*
X140970000Y-69215000D01*
%TO.N,Net-(D4-Pad1)*%
X100547500Y-80010000D02*
X105107500Y-80010000D01*
%TO.N,Net-(D3-Pad1)*%
X100547500Y-74295000D02*
X105107500Y-74295000D01*
%TO.N,Net-(D1-Pad1)*%
X100547500Y-62230000D02*
X105107500Y-62230000D01*
%TO.N,Net-(D2-Pad1)*%
X100547500Y-68580000D02*
X105107500Y-68580000D01*
%TO.N,VCC*%
X84100000Y-80010000D02*
X90525000Y-80010000D01*
X90805000Y-74295000D02*
X90805000Y-79730000D01*
X90805000Y-79730000D02*
X90525000Y-80010000D01*
X90805000Y-74295000D02*
X84311668Y-74295000D01*
X84311668Y-74295000D02*
X84100000Y-74083332D01*
X90880000Y-68580000D02*
X90880000Y-74220000D01*
X90880000Y-74220000D02*
X90805000Y-74295000D01*
X90880000Y-68580000D02*
X84523334Y-68580000D01*
X84523334Y-68580000D02*
X84100000Y-68156666D01*
X90880000Y-62230000D02*
X90880000Y-68580000D01*
X84100000Y-62230000D02*
X90880000Y-62230000D01*
%TO.N,Net-(D4-Pad2)*%
X97572500Y-80010000D02*
X93625000Y-80010000D01*
%TO.N,Net-(D3-Pad2)*%
X93905000Y-74295000D02*
X97572500Y-74295000D01*
%TO.N,Net-(D2-Pad2)*%
X93980000Y-68580000D02*
X97572500Y-68580000D01*
%TO.N,Net-(D1-Pad2)*%
X93980000Y-62230000D02*
X97572500Y-62230000D01*
%TO.N,/SCK*%
X125730000Y-61595000D02*
X135880000Y-51445000D01*
X135880000Y-51445000D02*
X135880000Y-48885000D01*
%TO.N,/MISO*%
X125730000Y-59055000D02*
X133340000Y-51445000D01*
X133340000Y-51445000D02*
X133340000Y-47615000D01*
%TO.N,/MOSI*%
X125730000Y-56515000D02*
X130800000Y-51445000D01*
X130800000Y-51445000D02*
X130800000Y-46345000D01*
X99755000Y-43180000D02*
X99755000Y-45780000D01*
X70485000Y-43170000D02*
X70485000Y-45710000D01*
X115570000Y-45720000D02*
X116195000Y-46345000D01*
X70485000Y-45710000D02*
X71120000Y-46345000D01*
X130165000Y-45710000D02*
X130800000Y-46345000D01*
X130165000Y-43170000D02*
X130165000Y-45710000D01*
X83880000Y-45780000D02*
X84445000Y-46345000D01*
X83880000Y-43180000D02*
X83880000Y-45780000D01*
X115570000Y-43180000D02*
X115570000Y-45720000D01*
X99755000Y-45780000D02*
X100320000Y-46345000D01*
%TO.N,/MISO*%
X73025000Y-46980000D02*
X73660000Y-47615000D01*
X86420000Y-43180000D02*
X86420000Y-47050000D01*
X73025000Y-43170000D02*
X73025000Y-46980000D01*
X86420000Y-47050000D02*
X86985000Y-47615000D01*
X132705000Y-43170000D02*
X132705000Y-46980000D01*
X102295000Y-47050000D02*
X102860000Y-47615000D01*
X118110000Y-43180000D02*
X118110000Y-46990000D01*
X118110000Y-46990000D02*
X118735000Y-47615000D01*
X102295000Y-43180000D02*
X102295000Y-47050000D01*
X132705000Y-46980000D02*
X133340000Y-47615000D01*
%TO.N,/SCK*%
X75565000Y-43170000D02*
X75565000Y-48250000D01*
X120650000Y-48260000D02*
X121275000Y-48885000D01*
X75565000Y-48250000D02*
X76200000Y-48885000D01*
X135245000Y-48250000D02*
X135880000Y-48885000D01*
X104835000Y-43180000D02*
X104835000Y-48320000D01*
X88960000Y-43180000D02*
X88960000Y-47050000D01*
X135245000Y-43170000D02*
X135245000Y-48250000D01*
X104835000Y-48320000D02*
X105400000Y-48885000D01*
X120650000Y-43180000D02*
X120650000Y-48260000D01*
X88960000Y-47050000D02*
X90795000Y-48885000D01*
%TD*%
M02*
