%TF.GenerationSoftware,KiCad,Pcbnew,(6.0.4)*%
%TF.CreationDate,2022-05-05T20:35:18-04:00*%
%TF.ProjectId,mainboard,6d61696e-626f-4617-9264-2e6b69636164,0.0*%
%TF.SameCoordinates,Original*%
%TF.FileFunction,Legend,Top*%
%TF.FilePolarity,Positive*%
%FSLAX46Y46*%
G04 Gerber Fmt 4.6, Leading zero omitted, Abs format (unit mm)*
G04 Created by KiCad (PCBNEW (6.0.4)) date 2022-05-05 20:35:18*
%MOMM*%
%LPD*%
G01*
G04 APERTURE LIST*
G04 Aperture macros list*
%AMRoundRect*
0 Rectangle with rounded corners*
0 $1 Rounding radius*
0 $2 $3 $4 $5 $6 $7 $8 $9 X,Y pos of 4 corners*
0 Add a 4 corners polygon primitive as box body*
4,1,4,$2,$3,$4,$5,$6,$7,$8,$9,$2,$3,0*
0 Add four circle primitives for the rounded corners*
1,1,$1+$1,$2,$3*
1,1,$1+$1,$4,$5*
1,1,$1+$1,$6,$7*
1,1,$1+$1,$8,$9*
0 Add four rect primitives between the rounded corners*
20,1,$1+$1,$2,$3,$4,$5,0*
20,1,$1+$1,$4,$5,$6,$7,0*
20,1,$1+$1,$6,$7,$8,$9,0*
20,1,$1+$1,$8,$9,$2,$3,0*%
G04 Aperture macros list end*
%ADD10C,0.150000*%
%ADD11C,0.300000*%
%ADD12C,0.120000*%
%ADD13R,1.700000X1.700000*%
%ADD14O,1.700000X1.700000*%
%ADD15RoundRect,0.250001X0.462499X1.074999X-0.462499X1.074999X-0.462499X-1.074999X0.462499X-1.074999X0*%
%ADD16C,5.300000*%
%ADD17RoundRect,0.250000X0.400000X0.625000X-0.400000X0.625000X-0.400000X-0.625000X0.400000X-0.625000X0*%
%ADD18RoundRect,0.150000X0.587500X0.150000X-0.587500X0.150000X-0.587500X-0.150000X0.587500X-0.150000X0*%
%ADD19RoundRect,0.250000X-0.400000X-0.625000X0.400000X-0.625000X0.400000X0.625000X-0.400000X0.625000X0*%
%ADD20R,1.600000X1.600000*%
%ADD21O,1.600000X1.600000*%
G04 APERTURE END LIST*
D10*
X65143095Y-51252380D02*
X65666904Y-50585714D01*
X65143095Y-50585714D02*
X65666904Y-51252380D01*
X65143095Y-53792380D02*
X65666904Y-53125714D01*
X65143095Y-53125714D02*
X65666904Y-53792380D01*
X65182857Y-55665714D02*
X65182857Y-56475238D01*
X65135238Y-56570476D01*
X65087619Y-56618095D01*
X64992380Y-56665714D01*
X64849523Y-56665714D01*
X64754285Y-56618095D01*
X65182857Y-56284761D02*
X65087619Y-56332380D01*
X64897142Y-56332380D01*
X64801904Y-56284761D01*
X64754285Y-56237142D01*
X64706666Y-56141904D01*
X64706666Y-55856190D01*
X64754285Y-55760952D01*
X64801904Y-55713333D01*
X64897142Y-55665714D01*
X65087619Y-55665714D01*
X65182857Y-55713333D01*
X65659047Y-55665714D02*
X65659047Y-56332380D01*
X65659047Y-55760952D02*
X65706666Y-55713333D01*
X65801904Y-55665714D01*
X65944761Y-55665714D01*
X66040000Y-55713333D01*
X66087619Y-55808571D01*
X66087619Y-56332380D01*
X66992380Y-56332380D02*
X66992380Y-55332380D01*
X66992380Y-56284761D02*
X66897142Y-56332380D01*
X66706666Y-56332380D01*
X66611428Y-56284761D01*
X66563809Y-56237142D01*
X66516190Y-56141904D01*
X66516190Y-55856190D01*
X66563809Y-55760952D01*
X66611428Y-55713333D01*
X66706666Y-55665714D01*
X66897142Y-55665714D01*
X66992380Y-55713333D01*
X68413333Y-45489761D02*
X68318095Y-45537380D01*
X68127619Y-45537380D01*
X68032380Y-45489761D01*
X67984761Y-45442142D01*
X67937142Y-45346904D01*
X67937142Y-45061190D01*
X67984761Y-44965952D01*
X68032380Y-44918333D01*
X68127619Y-44870714D01*
X68318095Y-44870714D01*
X68413333Y-44918333D01*
X68794285Y-45489761D02*
X68889523Y-45537380D01*
X69080000Y-45537380D01*
X69175238Y-45489761D01*
X69222857Y-45394523D01*
X69222857Y-45346904D01*
X69175238Y-45251666D01*
X69080000Y-45204047D01*
X68937142Y-45204047D01*
X68841904Y-45156428D01*
X68794285Y-45061190D01*
X68794285Y-45013571D01*
X68841904Y-44918333D01*
X68937142Y-44870714D01*
X69080000Y-44870714D01*
X69175238Y-44918333D01*
X72136190Y-46807380D02*
X72136190Y-46140714D01*
X72136190Y-46235952D02*
X72183809Y-46188333D01*
X72279047Y-46140714D01*
X72421904Y-46140714D01*
X72517142Y-46188333D01*
X72564761Y-46283571D01*
X72564761Y-46807380D01*
X72564761Y-46283571D02*
X72612380Y-46188333D01*
X72707619Y-46140714D01*
X72850476Y-46140714D01*
X72945714Y-46188333D01*
X72993333Y-46283571D01*
X72993333Y-46807380D01*
X73612380Y-46807380D02*
X73517142Y-46759761D01*
X73469523Y-46712142D01*
X73421904Y-46616904D01*
X73421904Y-46331190D01*
X73469523Y-46235952D01*
X73517142Y-46188333D01*
X73612380Y-46140714D01*
X73755238Y-46140714D01*
X73850476Y-46188333D01*
X73898095Y-46235952D01*
X73945714Y-46331190D01*
X73945714Y-46616904D01*
X73898095Y-46712142D01*
X73850476Y-46759761D01*
X73755238Y-46807380D01*
X73612380Y-46807380D01*
X74326666Y-46759761D02*
X74421904Y-46807380D01*
X74612380Y-46807380D01*
X74707619Y-46759761D01*
X74755238Y-46664523D01*
X74755238Y-46616904D01*
X74707619Y-46521666D01*
X74612380Y-46474047D01*
X74469523Y-46474047D01*
X74374285Y-46426428D01*
X74326666Y-46331190D01*
X74326666Y-46283571D01*
X74374285Y-46188333D01*
X74469523Y-46140714D01*
X74612380Y-46140714D01*
X74707619Y-46188333D01*
X75183809Y-46807380D02*
X75183809Y-46140714D01*
X75183809Y-45807380D02*
X75136190Y-45855000D01*
X75183809Y-45902619D01*
X75231428Y-45855000D01*
X75183809Y-45807380D01*
X75183809Y-45902619D01*
X74676190Y-48077380D02*
X74676190Y-47410714D01*
X74676190Y-47505952D02*
X74723809Y-47458333D01*
X74819047Y-47410714D01*
X74961904Y-47410714D01*
X75057142Y-47458333D01*
X75104761Y-47553571D01*
X75104761Y-48077380D01*
X75104761Y-47553571D02*
X75152380Y-47458333D01*
X75247619Y-47410714D01*
X75390476Y-47410714D01*
X75485714Y-47458333D01*
X75533333Y-47553571D01*
X75533333Y-48077380D01*
X76009523Y-48077380D02*
X76009523Y-47410714D01*
X76009523Y-47077380D02*
X75961904Y-47125000D01*
X76009523Y-47172619D01*
X76057142Y-47125000D01*
X76009523Y-47077380D01*
X76009523Y-47172619D01*
X76438095Y-48029761D02*
X76533333Y-48077380D01*
X76723809Y-48077380D01*
X76819047Y-48029761D01*
X76866666Y-47934523D01*
X76866666Y-47886904D01*
X76819047Y-47791666D01*
X76723809Y-47744047D01*
X76580952Y-47744047D01*
X76485714Y-47696428D01*
X76438095Y-47601190D01*
X76438095Y-47553571D01*
X76485714Y-47458333D01*
X76580952Y-47410714D01*
X76723809Y-47410714D01*
X76819047Y-47458333D01*
X77438095Y-48077380D02*
X77342857Y-48029761D01*
X77295238Y-47982142D01*
X77247619Y-47886904D01*
X77247619Y-47601190D01*
X77295238Y-47505952D01*
X77342857Y-47458333D01*
X77438095Y-47410714D01*
X77580952Y-47410714D01*
X77676190Y-47458333D01*
X77723809Y-47505952D01*
X77771428Y-47601190D01*
X77771428Y-47886904D01*
X77723809Y-47982142D01*
X77676190Y-48029761D01*
X77580952Y-48077380D01*
X77438095Y-48077380D01*
X77057380Y-49299761D02*
X77152619Y-49347380D01*
X77343095Y-49347380D01*
X77438333Y-49299761D01*
X77485952Y-49204523D01*
X77485952Y-49156904D01*
X77438333Y-49061666D01*
X77343095Y-49014047D01*
X77200238Y-49014047D01*
X77105000Y-48966428D01*
X77057380Y-48871190D01*
X77057380Y-48823571D01*
X77105000Y-48728333D01*
X77200238Y-48680714D01*
X77343095Y-48680714D01*
X77438333Y-48728333D01*
X78343095Y-49299761D02*
X78247857Y-49347380D01*
X78057380Y-49347380D01*
X77962142Y-49299761D01*
X77914523Y-49252142D01*
X77866904Y-49156904D01*
X77866904Y-48871190D01*
X77914523Y-48775952D01*
X77962142Y-48728333D01*
X78057380Y-48680714D01*
X78247857Y-48680714D01*
X78343095Y-48728333D01*
X78771666Y-49347380D02*
X78771666Y-48347380D01*
X78866904Y-48966428D02*
X79152619Y-49347380D01*
X79152619Y-48680714D02*
X78771666Y-49061666D01*
X86534761Y-61380714D02*
X86772857Y-62047380D01*
X87010952Y-61380714D01*
X87820476Y-61999761D02*
X87725238Y-62047380D01*
X87534761Y-62047380D01*
X87439523Y-61999761D01*
X87391904Y-61952142D01*
X87344285Y-61856904D01*
X87344285Y-61571190D01*
X87391904Y-61475952D01*
X87439523Y-61428333D01*
X87534761Y-61380714D01*
X87725238Y-61380714D01*
X87820476Y-61428333D01*
X88677619Y-61999761D02*
X88582380Y-62047380D01*
X88391904Y-62047380D01*
X88296666Y-61999761D01*
X88249047Y-61952142D01*
X88201428Y-61856904D01*
X88201428Y-61571190D01*
X88249047Y-61475952D01*
X88296666Y-61428333D01*
X88391904Y-61380714D01*
X88582380Y-61380714D01*
X88677619Y-61428333D01*
D11*
X103934523Y-54784523D02*
X104220238Y-54879761D01*
X104696428Y-54879761D01*
X104886904Y-54784523D01*
X104982142Y-54689285D01*
X105077380Y-54498809D01*
X105077380Y-54308333D01*
X104982142Y-54117857D01*
X104886904Y-54022619D01*
X104696428Y-53927380D01*
X104315476Y-53832142D01*
X104125000Y-53736904D01*
X104029761Y-53641666D01*
X103934523Y-53451190D01*
X103934523Y-53260714D01*
X104029761Y-53070238D01*
X104125000Y-52975000D01*
X104315476Y-52879761D01*
X104791666Y-52879761D01*
X105077380Y-52975000D01*
X105934523Y-54879761D02*
X105934523Y-52879761D01*
X106696428Y-52879761D01*
X106886904Y-52975000D01*
X106982142Y-53070238D01*
X107077380Y-53260714D01*
X107077380Y-53546428D01*
X106982142Y-53736904D01*
X106886904Y-53832142D01*
X106696428Y-53927380D01*
X105934523Y-53927380D01*
X107934523Y-54879761D02*
X107934523Y-52879761D01*
X111077380Y-53832142D02*
X111363095Y-53927380D01*
X111458333Y-54022619D01*
X111553571Y-54213095D01*
X111553571Y-54498809D01*
X111458333Y-54689285D01*
X111363095Y-54784523D01*
X111172619Y-54879761D01*
X110410714Y-54879761D01*
X110410714Y-52879761D01*
X111077380Y-52879761D01*
X111267857Y-52975000D01*
X111363095Y-53070238D01*
X111458333Y-53260714D01*
X111458333Y-53451190D01*
X111363095Y-53641666D01*
X111267857Y-53736904D01*
X111077380Y-53832142D01*
X110410714Y-53832142D01*
X113267857Y-53546428D02*
X113267857Y-54879761D01*
X112410714Y-53546428D02*
X112410714Y-54594047D01*
X112505952Y-54784523D01*
X112696428Y-54879761D01*
X112982142Y-54879761D01*
X113172619Y-54784523D01*
X113267857Y-54689285D01*
X114125000Y-54784523D02*
X114315476Y-54879761D01*
X114696428Y-54879761D01*
X114886904Y-54784523D01*
X114982142Y-54594047D01*
X114982142Y-54498809D01*
X114886904Y-54308333D01*
X114696428Y-54213095D01*
X114410714Y-54213095D01*
X114220238Y-54117857D01*
X114125000Y-53927380D01*
X114125000Y-53832142D01*
X114220238Y-53641666D01*
X114410714Y-53546428D01*
X114696428Y-53546428D01*
X114886904Y-53641666D01*
X116601190Y-54784523D02*
X116410714Y-54879761D01*
X116029761Y-54879761D01*
X115839285Y-54784523D01*
X115744047Y-54594047D01*
X115744047Y-53832142D01*
X115839285Y-53641666D01*
X116029761Y-53546428D01*
X116410714Y-53546428D01*
X116601190Y-53641666D01*
X116696428Y-53832142D01*
X116696428Y-54022619D01*
X115744047Y-54213095D01*
X117458333Y-54784523D02*
X117648809Y-54879761D01*
X118029761Y-54879761D01*
X118220238Y-54784523D01*
X118315476Y-54594047D01*
X118315476Y-54498809D01*
X118220238Y-54308333D01*
X118029761Y-54213095D01*
X117744047Y-54213095D01*
X117553571Y-54117857D01*
X117458333Y-53927380D01*
X117458333Y-53832142D01*
X117553571Y-53641666D01*
X117744047Y-53546428D01*
X118029761Y-53546428D01*
X118220238Y-53641666D01*
D10*
X70413571Y-72318095D02*
X70413571Y-72651428D01*
X70937380Y-72651428D02*
X69937380Y-72651428D01*
X69937380Y-72175238D01*
X70889761Y-71841904D02*
X70937380Y-71699047D01*
X70937380Y-71460952D01*
X70889761Y-71365714D01*
X70842142Y-71318095D01*
X70746904Y-71270476D01*
X70651666Y-71270476D01*
X70556428Y-71318095D01*
X70508809Y-71365714D01*
X70461190Y-71460952D01*
X70413571Y-71651428D01*
X70365952Y-71746666D01*
X70318333Y-71794285D01*
X70223095Y-71841904D01*
X70127857Y-71841904D01*
X70032619Y-71794285D01*
X69985000Y-71746666D01*
X69937380Y-71651428D01*
X69937380Y-71413333D01*
X69985000Y-71270476D01*
X70937380Y-70270476D02*
X70461190Y-70603809D01*
X70937380Y-70841904D02*
X69937380Y-70841904D01*
X69937380Y-70460952D01*
X69985000Y-70365714D01*
X70032619Y-70318095D01*
X70127857Y-70270476D01*
X70270714Y-70270476D01*
X70365952Y-70318095D01*
X70413571Y-70365714D01*
X70461190Y-70460952D01*
X70461190Y-70841904D01*
X70937380Y-69080000D02*
X69937380Y-69080000D01*
X70270714Y-68603809D02*
X70937380Y-68603809D01*
X70365952Y-68603809D02*
X70318333Y-68556190D01*
X70270714Y-68460952D01*
X70270714Y-68318095D01*
X70318333Y-68222857D01*
X70413571Y-68175238D01*
X70937380Y-68175238D01*
X70270714Y-67699047D02*
X71270714Y-67699047D01*
X70318333Y-67699047D02*
X70270714Y-67603809D01*
X70270714Y-67413333D01*
X70318333Y-67318095D01*
X70365952Y-67270476D01*
X70461190Y-67222857D01*
X70746904Y-67222857D01*
X70842142Y-67270476D01*
X70889761Y-67318095D01*
X70937380Y-67413333D01*
X70937380Y-67603809D01*
X70889761Y-67699047D01*
X70270714Y-66365714D02*
X70937380Y-66365714D01*
X70270714Y-66794285D02*
X70794523Y-66794285D01*
X70889761Y-66746666D01*
X70937380Y-66651428D01*
X70937380Y-66508571D01*
X70889761Y-66413333D01*
X70842142Y-66365714D01*
X70270714Y-66032380D02*
X70270714Y-65651428D01*
X69937380Y-65889523D02*
X70794523Y-65889523D01*
X70889761Y-65841904D01*
X70937380Y-65746666D01*
X70937380Y-65651428D01*
X70889761Y-65365714D02*
X70937380Y-65270476D01*
X70937380Y-65080000D01*
X70889761Y-64984761D01*
X70794523Y-64937142D01*
X70746904Y-64937142D01*
X70651666Y-64984761D01*
X70604047Y-65080000D01*
X70604047Y-65222857D01*
X70556428Y-65318095D01*
X70461190Y-65365714D01*
X70413571Y-65365714D01*
X70318333Y-65318095D01*
X70270714Y-65222857D01*
X70270714Y-65080000D01*
X70318333Y-64984761D01*
X70842142Y-64508571D02*
X70889761Y-64460952D01*
X70937380Y-64508571D01*
X70889761Y-64556190D01*
X70842142Y-64508571D01*
X70937380Y-64508571D01*
X70556428Y-64508571D02*
X69985000Y-64556190D01*
X69937380Y-64508571D01*
X69985000Y-64460952D01*
X70556428Y-64508571D01*
X69937380Y-64508571D01*
X102402380Y-92287380D02*
X102973809Y-92287380D01*
X102688095Y-93287380D02*
X102688095Y-92287380D01*
X103259523Y-93001666D02*
X103735714Y-93001666D01*
X103164285Y-93287380D02*
X103497619Y-92287380D01*
X103830952Y-93287380D01*
X104354761Y-92811190D02*
X104354761Y-93287380D01*
X104021428Y-92287380D02*
X104354761Y-92811190D01*
X104688095Y-92287380D01*
X104973809Y-93001666D02*
X105450000Y-93001666D01*
X104878571Y-93287380D02*
X105211904Y-92287380D01*
X105545238Y-93287380D01*
X106450000Y-93192142D02*
X106402380Y-93239761D01*
X106259523Y-93287380D01*
X106164285Y-93287380D01*
X106021428Y-93239761D01*
X105926190Y-93144523D01*
X105878571Y-93049285D01*
X105830952Y-92858809D01*
X105830952Y-92715952D01*
X105878571Y-92525476D01*
X105926190Y-92430238D01*
X106021428Y-92335000D01*
X106164285Y-92287380D01*
X106259523Y-92287380D01*
X106402380Y-92335000D01*
X106450000Y-92382619D01*
X107640476Y-92906428D02*
X108402380Y-92906428D01*
X109640476Y-93287380D02*
X109640476Y-92287380D01*
X109973809Y-93001666D01*
X110307142Y-92287380D01*
X110307142Y-93287380D01*
X111211904Y-93287380D02*
X111211904Y-92763571D01*
X111164285Y-92668333D01*
X111069047Y-92620714D01*
X110878571Y-92620714D01*
X110783333Y-92668333D01*
X111211904Y-93239761D02*
X111116666Y-93287380D01*
X110878571Y-93287380D01*
X110783333Y-93239761D01*
X110735714Y-93144523D01*
X110735714Y-93049285D01*
X110783333Y-92954047D01*
X110878571Y-92906428D01*
X111116666Y-92906428D01*
X111211904Y-92858809D01*
X111688095Y-93287380D02*
X111688095Y-92620714D01*
X111688095Y-92287380D02*
X111640476Y-92335000D01*
X111688095Y-92382619D01*
X111735714Y-92335000D01*
X111688095Y-92287380D01*
X111688095Y-92382619D01*
X112164285Y-92620714D02*
X112164285Y-93287380D01*
X112164285Y-92715952D02*
X112211904Y-92668333D01*
X112307142Y-92620714D01*
X112450000Y-92620714D01*
X112545238Y-92668333D01*
X112592857Y-92763571D01*
X112592857Y-93287380D01*
X95830952Y-94230714D02*
X96211904Y-94230714D01*
X95973809Y-93897380D02*
X95973809Y-94754523D01*
X96021428Y-94849761D01*
X96116666Y-94897380D01*
X96211904Y-94897380D01*
X96545238Y-94897380D02*
X96545238Y-93897380D01*
X96973809Y-94897380D02*
X96973809Y-94373571D01*
X96926190Y-94278333D01*
X96830952Y-94230714D01*
X96688095Y-94230714D01*
X96592857Y-94278333D01*
X96545238Y-94325952D01*
X97450000Y-94897380D02*
X97450000Y-94230714D01*
X97450000Y-94421190D02*
X97497619Y-94325952D01*
X97545238Y-94278333D01*
X97640476Y-94230714D01*
X97735714Y-94230714D01*
X98211904Y-94897380D02*
X98116666Y-94849761D01*
X98069047Y-94802142D01*
X98021428Y-94706904D01*
X98021428Y-94421190D01*
X98069047Y-94325952D01*
X98116666Y-94278333D01*
X98211904Y-94230714D01*
X98354761Y-94230714D01*
X98450000Y-94278333D01*
X98497619Y-94325952D01*
X98545238Y-94421190D01*
X98545238Y-94706904D01*
X98497619Y-94802142D01*
X98450000Y-94849761D01*
X98354761Y-94897380D01*
X98211904Y-94897380D01*
X98878571Y-94230714D02*
X99069047Y-94897380D01*
X99259523Y-94421190D01*
X99450000Y-94897380D01*
X99640476Y-94230714D01*
X101211904Y-94897380D02*
X101211904Y-94373571D01*
X101164285Y-94278333D01*
X101069047Y-94230714D01*
X100878571Y-94230714D01*
X100783333Y-94278333D01*
X101211904Y-94849761D02*
X101116666Y-94897380D01*
X100878571Y-94897380D01*
X100783333Y-94849761D01*
X100735714Y-94754523D01*
X100735714Y-94659285D01*
X100783333Y-94564047D01*
X100878571Y-94516428D01*
X101116666Y-94516428D01*
X101211904Y-94468809D01*
X101592857Y-94230714D02*
X101783333Y-94897380D01*
X101973809Y-94421190D01*
X102164285Y-94897380D01*
X102354761Y-94230714D01*
X103164285Y-94897380D02*
X103164285Y-94373571D01*
X103116666Y-94278333D01*
X103021428Y-94230714D01*
X102830952Y-94230714D01*
X102735714Y-94278333D01*
X103164285Y-94849761D02*
X103069047Y-94897380D01*
X102830952Y-94897380D01*
X102735714Y-94849761D01*
X102688095Y-94754523D01*
X102688095Y-94659285D01*
X102735714Y-94564047D01*
X102830952Y-94516428D01*
X103069047Y-94516428D01*
X103164285Y-94468809D01*
X103545238Y-94230714D02*
X103783333Y-94897380D01*
X104021428Y-94230714D02*
X103783333Y-94897380D01*
X103688095Y-95135476D01*
X103640476Y-95183095D01*
X103545238Y-95230714D01*
X105069047Y-94230714D02*
X105307142Y-94897380D01*
X105545238Y-94230714D02*
X105307142Y-94897380D01*
X105211904Y-95135476D01*
X105164285Y-95183095D01*
X105069047Y-95230714D01*
X106069047Y-94897380D02*
X105973809Y-94849761D01*
X105926190Y-94802142D01*
X105878571Y-94706904D01*
X105878571Y-94421190D01*
X105926190Y-94325952D01*
X105973809Y-94278333D01*
X106069047Y-94230714D01*
X106211904Y-94230714D01*
X106307142Y-94278333D01*
X106354761Y-94325952D01*
X106402380Y-94421190D01*
X106402380Y-94706904D01*
X106354761Y-94802142D01*
X106307142Y-94849761D01*
X106211904Y-94897380D01*
X106069047Y-94897380D01*
X107259523Y-94230714D02*
X107259523Y-94897380D01*
X106830952Y-94230714D02*
X106830952Y-94754523D01*
X106878571Y-94849761D01*
X106973809Y-94897380D01*
X107116666Y-94897380D01*
X107211904Y-94849761D01*
X107259523Y-94802142D01*
X107735714Y-94897380D02*
X107735714Y-94230714D01*
X107735714Y-94421190D02*
X107783333Y-94325952D01*
X107830952Y-94278333D01*
X107926190Y-94230714D01*
X108021428Y-94230714D01*
X109545238Y-94897380D02*
X109545238Y-94373571D01*
X109497619Y-94278333D01*
X109402380Y-94230714D01*
X109211904Y-94230714D01*
X109116666Y-94278333D01*
X109545238Y-94849761D02*
X109450000Y-94897380D01*
X109211904Y-94897380D01*
X109116666Y-94849761D01*
X109069047Y-94754523D01*
X109069047Y-94659285D01*
X109116666Y-94564047D01*
X109211904Y-94516428D01*
X109450000Y-94516428D01*
X109545238Y-94468809D01*
X110021428Y-94897380D02*
X110021428Y-94230714D01*
X110021428Y-94421190D02*
X110069047Y-94325952D01*
X110116666Y-94278333D01*
X110211904Y-94230714D01*
X110307142Y-94230714D01*
X111069047Y-94849761D02*
X110973809Y-94897380D01*
X110783333Y-94897380D01*
X110688095Y-94849761D01*
X110640476Y-94802142D01*
X110592857Y-94706904D01*
X110592857Y-94421190D01*
X110640476Y-94325952D01*
X110688095Y-94278333D01*
X110783333Y-94230714D01*
X110973809Y-94230714D01*
X111069047Y-94278333D01*
X111926190Y-94897380D02*
X111926190Y-94373571D01*
X111878571Y-94278333D01*
X111783333Y-94230714D01*
X111592857Y-94230714D01*
X111497619Y-94278333D01*
X111926190Y-94849761D02*
X111830952Y-94897380D01*
X111592857Y-94897380D01*
X111497619Y-94849761D01*
X111450000Y-94754523D01*
X111450000Y-94659285D01*
X111497619Y-94564047D01*
X111592857Y-94516428D01*
X111830952Y-94516428D01*
X111926190Y-94468809D01*
X112830952Y-94897380D02*
X112830952Y-93897380D01*
X112830952Y-94849761D02*
X112735714Y-94897380D01*
X112545238Y-94897380D01*
X112450000Y-94849761D01*
X112402380Y-94802142D01*
X112354761Y-94706904D01*
X112354761Y-94421190D01*
X112402380Y-94325952D01*
X112450000Y-94278333D01*
X112545238Y-94230714D01*
X112735714Y-94230714D01*
X112830952Y-94278333D01*
X113688095Y-94849761D02*
X113592857Y-94897380D01*
X113402380Y-94897380D01*
X113307142Y-94849761D01*
X113259523Y-94754523D01*
X113259523Y-94373571D01*
X113307142Y-94278333D01*
X113402380Y-94230714D01*
X113592857Y-94230714D01*
X113688095Y-94278333D01*
X113735714Y-94373571D01*
X113735714Y-94468809D01*
X113259523Y-94564047D01*
X115354761Y-94849761D02*
X115259523Y-94897380D01*
X115069047Y-94897380D01*
X114973809Y-94849761D01*
X114926190Y-94802142D01*
X114878571Y-94706904D01*
X114878571Y-94421190D01*
X114926190Y-94325952D01*
X114973809Y-94278333D01*
X115069047Y-94230714D01*
X115259523Y-94230714D01*
X115354761Y-94278333D01*
X116211904Y-94897380D02*
X116211904Y-94373571D01*
X116164285Y-94278333D01*
X116069047Y-94230714D01*
X115878571Y-94230714D01*
X115783333Y-94278333D01*
X116211904Y-94849761D02*
X116116666Y-94897380D01*
X115878571Y-94897380D01*
X115783333Y-94849761D01*
X115735714Y-94754523D01*
X115735714Y-94659285D01*
X115783333Y-94564047D01*
X115878571Y-94516428D01*
X116116666Y-94516428D01*
X116211904Y-94468809D01*
X116688095Y-94897380D02*
X116688095Y-93897380D01*
X116688095Y-94278333D02*
X116783333Y-94230714D01*
X116973809Y-94230714D01*
X117069047Y-94278333D01*
X117116666Y-94325952D01*
X117164285Y-94421190D01*
X117164285Y-94706904D01*
X117116666Y-94802142D01*
X117069047Y-94849761D01*
X116973809Y-94897380D01*
X116783333Y-94897380D01*
X116688095Y-94849761D01*
X117592857Y-94897380D02*
X117592857Y-94230714D01*
X117592857Y-93897380D02*
X117545238Y-93945000D01*
X117592857Y-93992619D01*
X117640476Y-93945000D01*
X117592857Y-93897380D01*
X117592857Y-93992619D01*
X118069047Y-94230714D02*
X118069047Y-94897380D01*
X118069047Y-94325952D02*
X118116666Y-94278333D01*
X118211904Y-94230714D01*
X118354761Y-94230714D01*
X118450000Y-94278333D01*
X118497619Y-94373571D01*
X118497619Y-94897380D01*
X119354761Y-94849761D02*
X119259523Y-94897380D01*
X119069047Y-94897380D01*
X118973809Y-94849761D01*
X118926190Y-94754523D01*
X118926190Y-94373571D01*
X118973809Y-94278333D01*
X119069047Y-94230714D01*
X119259523Y-94230714D01*
X119354761Y-94278333D01*
X119402380Y-94373571D01*
X119402380Y-94468809D01*
X118926190Y-94564047D01*
X119688095Y-94230714D02*
X120069047Y-94230714D01*
X119830952Y-93897380D02*
X119830952Y-94754523D01*
X119878571Y-94849761D01*
X119973809Y-94897380D01*
X120069047Y-94897380D01*
X103854761Y-95840714D02*
X104092857Y-96507380D01*
X104330952Y-95840714D01*
X105092857Y-96459761D02*
X104997619Y-96507380D01*
X104807142Y-96507380D01*
X104711904Y-96459761D01*
X104664285Y-96364523D01*
X104664285Y-95983571D01*
X104711904Y-95888333D01*
X104807142Y-95840714D01*
X104997619Y-95840714D01*
X105092857Y-95888333D01*
X105140476Y-95983571D01*
X105140476Y-96078809D01*
X104664285Y-96174047D01*
X105569047Y-96507380D02*
X105569047Y-95840714D01*
X105569047Y-96031190D02*
X105616666Y-95935952D01*
X105664285Y-95888333D01*
X105759523Y-95840714D01*
X105854761Y-95840714D01*
X106140476Y-96459761D02*
X106235714Y-96507380D01*
X106426190Y-96507380D01*
X106521428Y-96459761D01*
X106569047Y-96364523D01*
X106569047Y-96316904D01*
X106521428Y-96221666D01*
X106426190Y-96174047D01*
X106283333Y-96174047D01*
X106188095Y-96126428D01*
X106140476Y-96031190D01*
X106140476Y-95983571D01*
X106188095Y-95888333D01*
X106283333Y-95840714D01*
X106426190Y-95840714D01*
X106521428Y-95888333D01*
X106997619Y-96507380D02*
X106997619Y-95840714D01*
X106997619Y-95507380D02*
X106950000Y-95555000D01*
X106997619Y-95602619D01*
X107045238Y-95555000D01*
X106997619Y-95507380D01*
X106997619Y-95602619D01*
X107616666Y-96507380D02*
X107521428Y-96459761D01*
X107473809Y-96412142D01*
X107426190Y-96316904D01*
X107426190Y-96031190D01*
X107473809Y-95935952D01*
X107521428Y-95888333D01*
X107616666Y-95840714D01*
X107759523Y-95840714D01*
X107854761Y-95888333D01*
X107902380Y-95935952D01*
X107950000Y-96031190D01*
X107950000Y-96316904D01*
X107902380Y-96412142D01*
X107854761Y-96459761D01*
X107759523Y-96507380D01*
X107616666Y-96507380D01*
X108378571Y-95840714D02*
X108378571Y-96507380D01*
X108378571Y-95935952D02*
X108426190Y-95888333D01*
X108521428Y-95840714D01*
X108664285Y-95840714D01*
X108759523Y-95888333D01*
X108807142Y-95983571D01*
X108807142Y-96507380D01*
X110235714Y-95507380D02*
X110330952Y-95507380D01*
X110426190Y-95555000D01*
X110473809Y-95602619D01*
X110521428Y-95697857D01*
X110569047Y-95888333D01*
X110569047Y-96126428D01*
X110521428Y-96316904D01*
X110473809Y-96412142D01*
X110426190Y-96459761D01*
X110330952Y-96507380D01*
X110235714Y-96507380D01*
X110140476Y-96459761D01*
X110092857Y-96412142D01*
X110045238Y-96316904D01*
X109997619Y-96126428D01*
X109997619Y-95888333D01*
X110045238Y-95697857D01*
X110092857Y-95602619D01*
X110140476Y-95555000D01*
X110235714Y-95507380D01*
X110997619Y-96412142D02*
X111045238Y-96459761D01*
X110997619Y-96507380D01*
X110950000Y-96459761D01*
X110997619Y-96412142D01*
X110997619Y-96507380D01*
X111664285Y-95507380D02*
X111759523Y-95507380D01*
X111854761Y-95555000D01*
X111902380Y-95602619D01*
X111950000Y-95697857D01*
X111997619Y-95888333D01*
X111997619Y-96126428D01*
X111950000Y-96316904D01*
X111902380Y-96412142D01*
X111854761Y-96459761D01*
X111759523Y-96507380D01*
X111664285Y-96507380D01*
X111569047Y-96459761D01*
X111521428Y-96412142D01*
X111473809Y-96316904D01*
X111426190Y-96126428D01*
X111426190Y-95888333D01*
X111473809Y-95697857D01*
X111521428Y-95602619D01*
X111569047Y-95555000D01*
X111664285Y-95507380D01*
X100545238Y-97450714D02*
X100545238Y-98117380D01*
X100545238Y-97545952D02*
X100592857Y-97498333D01*
X100688095Y-97450714D01*
X100830952Y-97450714D01*
X100926190Y-97498333D01*
X100973809Y-97593571D01*
X100973809Y-98117380D01*
X101878571Y-98117380D02*
X101878571Y-97593571D01*
X101830952Y-97498333D01*
X101735714Y-97450714D01*
X101545238Y-97450714D01*
X101450000Y-97498333D01*
X101878571Y-98069761D02*
X101783333Y-98117380D01*
X101545238Y-98117380D01*
X101450000Y-98069761D01*
X101402380Y-97974523D01*
X101402380Y-97879285D01*
X101450000Y-97784047D01*
X101545238Y-97736428D01*
X101783333Y-97736428D01*
X101878571Y-97688809D01*
X102354761Y-98117380D02*
X102354761Y-97117380D01*
X102354761Y-97498333D02*
X102450000Y-97450714D01*
X102640476Y-97450714D01*
X102735714Y-97498333D01*
X102783333Y-97545952D01*
X102830952Y-97641190D01*
X102830952Y-97926904D01*
X102783333Y-98022142D01*
X102735714Y-98069761D01*
X102640476Y-98117380D01*
X102450000Y-98117380D01*
X102354761Y-98069761D01*
X103688095Y-97450714D02*
X103688095Y-98117380D01*
X103259523Y-97450714D02*
X103259523Y-97974523D01*
X103307142Y-98069761D01*
X103402380Y-98117380D01*
X103545238Y-98117380D01*
X103640476Y-98069761D01*
X103688095Y-98022142D01*
X104307142Y-98117380D02*
X104211904Y-98069761D01*
X104164285Y-97974523D01*
X104164285Y-97117380D01*
X105116666Y-98117380D02*
X105116666Y-97593571D01*
X105069047Y-97498333D01*
X104973809Y-97450714D01*
X104783333Y-97450714D01*
X104688095Y-97498333D01*
X105116666Y-98069761D02*
X105021428Y-98117380D01*
X104783333Y-98117380D01*
X104688095Y-98069761D01*
X104640476Y-97974523D01*
X104640476Y-97879285D01*
X104688095Y-97784047D01*
X104783333Y-97736428D01*
X105021428Y-97736428D01*
X105116666Y-97688809D01*
X105450000Y-97450714D02*
X105830952Y-97450714D01*
X105592857Y-97117380D02*
X105592857Y-97974523D01*
X105640476Y-98069761D01*
X105735714Y-98117380D01*
X105830952Y-98117380D01*
X106307142Y-98117380D02*
X106211904Y-98069761D01*
X106164285Y-98022142D01*
X106116666Y-97926904D01*
X106116666Y-97641190D01*
X106164285Y-97545952D01*
X106211904Y-97498333D01*
X106307142Y-97450714D01*
X106449999Y-97450714D01*
X106545238Y-97498333D01*
X106592857Y-97545952D01*
X106640476Y-97641190D01*
X106640476Y-97926904D01*
X106592857Y-98022142D01*
X106545238Y-98069761D01*
X106449999Y-98117380D01*
X106307142Y-98117380D01*
X107069047Y-98117380D02*
X107069047Y-97450714D01*
X107069047Y-97641190D02*
X107116666Y-97545952D01*
X107164285Y-97498333D01*
X107259523Y-97450714D01*
X107354761Y-97450714D01*
X108402380Y-97212619D02*
X108450000Y-97165000D01*
X108545238Y-97117380D01*
X108783333Y-97117380D01*
X108878571Y-97165000D01*
X108926190Y-97212619D01*
X108973809Y-97307857D01*
X108973809Y-97403095D01*
X108926190Y-97545952D01*
X108354761Y-98117380D01*
X108973809Y-98117380D01*
X109592857Y-97117380D02*
X109688095Y-97117380D01*
X109783333Y-97165000D01*
X109830952Y-97212619D01*
X109878571Y-97307857D01*
X109926190Y-97498333D01*
X109926190Y-97736428D01*
X109878571Y-97926904D01*
X109830952Y-98022142D01*
X109783333Y-98069761D01*
X109688095Y-98117380D01*
X109592857Y-98117380D01*
X109497619Y-98069761D01*
X109450000Y-98022142D01*
X109402380Y-97926904D01*
X109354761Y-97736428D01*
X109354761Y-97498333D01*
X109402380Y-97307857D01*
X109450000Y-97212619D01*
X109497619Y-97165000D01*
X109592857Y-97117380D01*
X110307142Y-97212619D02*
X110354761Y-97165000D01*
X110450000Y-97117380D01*
X110688095Y-97117380D01*
X110783333Y-97165000D01*
X110830952Y-97212619D01*
X110878571Y-97307857D01*
X110878571Y-97403095D01*
X110830952Y-97545952D01*
X110259523Y-98117380D01*
X110878571Y-98117380D01*
X111259523Y-97212619D02*
X111307142Y-97165000D01*
X111402380Y-97117380D01*
X111640476Y-97117380D01*
X111735714Y-97165000D01*
X111783333Y-97212619D01*
X111830952Y-97307857D01*
X111830952Y-97403095D01*
X111783333Y-97545952D01*
X111211904Y-98117380D01*
X111830952Y-98117380D01*
X113021428Y-98117380D02*
X113021428Y-97117380D01*
X113354761Y-97831666D01*
X113688095Y-97117380D01*
X113688095Y-98117380D01*
X114592857Y-98117380D02*
X114592857Y-97593571D01*
X114545238Y-97498333D01*
X114449999Y-97450714D01*
X114259523Y-97450714D01*
X114164285Y-97498333D01*
X114592857Y-98069761D02*
X114497619Y-98117380D01*
X114259523Y-98117380D01*
X114164285Y-98069761D01*
X114116666Y-97974523D01*
X114116666Y-97879285D01*
X114164285Y-97784047D01*
X114259523Y-97736428D01*
X114497619Y-97736428D01*
X114592857Y-97688809D01*
X114973809Y-97450714D02*
X115211904Y-98117380D01*
X115449999Y-97450714D02*
X115211904Y-98117380D01*
X115116666Y-98355476D01*
X115069047Y-98403095D01*
X114973809Y-98450714D01*
%TO.C,J6*%
X58076666Y-57592380D02*
X58076666Y-58306666D01*
X58029047Y-58449523D01*
X57933809Y-58544761D01*
X57790952Y-58592380D01*
X57695714Y-58592380D01*
X58981428Y-57592380D02*
X58790952Y-57592380D01*
X58695714Y-57640000D01*
X58648095Y-57687619D01*
X58552857Y-57830476D01*
X58505238Y-58020952D01*
X58505238Y-58401904D01*
X58552857Y-58497142D01*
X58600476Y-58544761D01*
X58695714Y-58592380D01*
X58886190Y-58592380D01*
X58981428Y-58544761D01*
X59029047Y-58497142D01*
X59076666Y-58401904D01*
X59076666Y-58163809D01*
X59029047Y-58068571D01*
X58981428Y-58020952D01*
X58886190Y-57973333D01*
X58695714Y-57973333D01*
X58600476Y-58020952D01*
X58552857Y-58068571D01*
X58505238Y-58163809D01*
%TO.C,D1*%
X98321904Y-64962380D02*
X98321904Y-63962380D01*
X98560000Y-63962380D01*
X98702857Y-64010000D01*
X98798095Y-64105238D01*
X98845714Y-64200476D01*
X98893333Y-64390952D01*
X98893333Y-64533809D01*
X98845714Y-64724285D01*
X98798095Y-64819523D01*
X98702857Y-64914761D01*
X98560000Y-64962380D01*
X98321904Y-64962380D01*
X99845714Y-64962380D02*
X99274285Y-64962380D01*
X99560000Y-64962380D02*
X99560000Y-63962380D01*
X99464761Y-64105238D01*
X99369523Y-64200476D01*
X99274285Y-64248095D01*
%TO.C,D3*%
X98321904Y-77027380D02*
X98321904Y-76027380D01*
X98560000Y-76027380D01*
X98702857Y-76075000D01*
X98798095Y-76170238D01*
X98845714Y-76265476D01*
X98893333Y-76455952D01*
X98893333Y-76598809D01*
X98845714Y-76789285D01*
X98798095Y-76884523D01*
X98702857Y-76979761D01*
X98560000Y-77027380D01*
X98321904Y-77027380D01*
X99226666Y-76027380D02*
X99845714Y-76027380D01*
X99512380Y-76408333D01*
X99655238Y-76408333D01*
X99750476Y-76455952D01*
X99798095Y-76503571D01*
X99845714Y-76598809D01*
X99845714Y-76836904D01*
X99798095Y-76932142D01*
X99750476Y-76979761D01*
X99655238Y-77027380D01*
X99369523Y-77027380D01*
X99274285Y-76979761D01*
X99226666Y-76932142D01*
%TO.C,D2*%
X98321904Y-71312380D02*
X98321904Y-70312380D01*
X98560000Y-70312380D01*
X98702857Y-70360000D01*
X98798095Y-70455238D01*
X98845714Y-70550476D01*
X98893333Y-70740952D01*
X98893333Y-70883809D01*
X98845714Y-71074285D01*
X98798095Y-71169523D01*
X98702857Y-71264761D01*
X98560000Y-71312380D01*
X98321904Y-71312380D01*
X99274285Y-70407619D02*
X99321904Y-70360000D01*
X99417142Y-70312380D01*
X99655238Y-70312380D01*
X99750476Y-70360000D01*
X99798095Y-70407619D01*
X99845714Y-70502857D01*
X99845714Y-70598095D01*
X99798095Y-70740952D01*
X99226666Y-71312380D01*
X99845714Y-71312380D01*
%TO.C,D4*%
X98321904Y-83002380D02*
X98321904Y-82002380D01*
X98560000Y-82002380D01*
X98702857Y-82050000D01*
X98798095Y-82145238D01*
X98845714Y-82240476D01*
X98893333Y-82430952D01*
X98893333Y-82573809D01*
X98845714Y-82764285D01*
X98798095Y-82859523D01*
X98702857Y-82954761D01*
X98560000Y-83002380D01*
X98321904Y-83002380D01*
X99750476Y-82335714D02*
X99750476Y-83002380D01*
X99512380Y-81954761D02*
X99274285Y-82669047D01*
X99893333Y-82669047D01*
%TO.C,H4*%
X58293095Y-87497380D02*
X58293095Y-86497380D01*
X58293095Y-86973571D02*
X58864523Y-86973571D01*
X58864523Y-87497380D02*
X58864523Y-86497380D01*
X59769285Y-86830714D02*
X59769285Y-87497380D01*
X59531190Y-86449761D02*
X59293095Y-87164047D01*
X59912142Y-87164047D01*
%TO.C,H3*%
X143383095Y-88132380D02*
X143383095Y-87132380D01*
X143383095Y-87608571D02*
X143954523Y-87608571D01*
X143954523Y-88132380D02*
X143954523Y-87132380D01*
X144335476Y-87132380D02*
X144954523Y-87132380D01*
X144621190Y-87513333D01*
X144764047Y-87513333D01*
X144859285Y-87560952D01*
X144906904Y-87608571D01*
X144954523Y-87703809D01*
X144954523Y-87941904D01*
X144906904Y-88037142D01*
X144859285Y-88084761D01*
X144764047Y-88132380D01*
X144478333Y-88132380D01*
X144383095Y-88084761D01*
X144335476Y-88037142D01*
%TO.C,H2*%
X143383095Y-32887380D02*
X143383095Y-31887380D01*
X143383095Y-32363571D02*
X143954523Y-32363571D01*
X143954523Y-32887380D02*
X143954523Y-31887380D01*
X144383095Y-31982619D02*
X144430714Y-31935000D01*
X144525952Y-31887380D01*
X144764047Y-31887380D01*
X144859285Y-31935000D01*
X144906904Y-31982619D01*
X144954523Y-32077857D01*
X144954523Y-32173095D01*
X144906904Y-32315952D01*
X144335476Y-32887380D01*
X144954523Y-32887380D01*
%TO.C,H1*%
X57658095Y-32887380D02*
X57658095Y-31887380D01*
X57658095Y-32363571D02*
X58229523Y-32363571D01*
X58229523Y-32887380D02*
X58229523Y-31887380D01*
X59229523Y-32887380D02*
X58658095Y-32887380D01*
X58943809Y-32887380D02*
X58943809Y-31887380D01*
X58848571Y-32030238D01*
X58753333Y-32125476D01*
X58658095Y-32173095D01*
%TO.C,R6*%
X82383333Y-82282380D02*
X82050000Y-81806190D01*
X81811904Y-82282380D02*
X81811904Y-81282380D01*
X82192857Y-81282380D01*
X82288095Y-81330000D01*
X82335714Y-81377619D01*
X82383333Y-81472857D01*
X82383333Y-81615714D01*
X82335714Y-81710952D01*
X82288095Y-81758571D01*
X82192857Y-81806190D01*
X81811904Y-81806190D01*
X83240476Y-81282380D02*
X83050000Y-81282380D01*
X82954761Y-81330000D01*
X82907142Y-81377619D01*
X82811904Y-81520476D01*
X82764285Y-81710952D01*
X82764285Y-82091904D01*
X82811904Y-82187142D01*
X82859523Y-82234761D01*
X82954761Y-82282380D01*
X83145238Y-82282380D01*
X83240476Y-82234761D01*
X83288095Y-82187142D01*
X83335714Y-82091904D01*
X83335714Y-81853809D01*
X83288095Y-81758571D01*
X83240476Y-81710952D01*
X83145238Y-81663333D01*
X82954761Y-81663333D01*
X82859523Y-81710952D01*
X82811904Y-81758571D01*
X82764285Y-81853809D01*
%TO.C,Q1*%
X105949761Y-65177619D02*
X105854523Y-65130000D01*
X105759285Y-65034761D01*
X105616428Y-64891904D01*
X105521190Y-64844285D01*
X105425952Y-64844285D01*
X105473571Y-65082380D02*
X105378333Y-65034761D01*
X105283095Y-64939523D01*
X105235476Y-64749047D01*
X105235476Y-64415714D01*
X105283095Y-64225238D01*
X105378333Y-64130000D01*
X105473571Y-64082380D01*
X105664047Y-64082380D01*
X105759285Y-64130000D01*
X105854523Y-64225238D01*
X105902142Y-64415714D01*
X105902142Y-64749047D01*
X105854523Y-64939523D01*
X105759285Y-65034761D01*
X105664047Y-65082380D01*
X105473571Y-65082380D01*
X106854523Y-65082380D02*
X106283095Y-65082380D01*
X106568809Y-65082380D02*
X106568809Y-64082380D01*
X106473571Y-64225238D01*
X106378333Y-64320476D01*
X106283095Y-64368095D01*
%TO.C,R4*%
X82383333Y-76355712D02*
X82050000Y-75879522D01*
X81811904Y-76355712D02*
X81811904Y-75355712D01*
X82192857Y-75355712D01*
X82288095Y-75403332D01*
X82335714Y-75450951D01*
X82383333Y-75546189D01*
X82383333Y-75689046D01*
X82335714Y-75784284D01*
X82288095Y-75831903D01*
X82192857Y-75879522D01*
X81811904Y-75879522D01*
X83240476Y-75689046D02*
X83240476Y-76355712D01*
X83002380Y-75308093D02*
X82764285Y-76022379D01*
X83383333Y-76022379D01*
%TO.C,Q2*%
X105949761Y-71527619D02*
X105854523Y-71480000D01*
X105759285Y-71384761D01*
X105616428Y-71241904D01*
X105521190Y-71194285D01*
X105425952Y-71194285D01*
X105473571Y-71432380D02*
X105378333Y-71384761D01*
X105283095Y-71289523D01*
X105235476Y-71099047D01*
X105235476Y-70765714D01*
X105283095Y-70575238D01*
X105378333Y-70480000D01*
X105473571Y-70432380D01*
X105664047Y-70432380D01*
X105759285Y-70480000D01*
X105854523Y-70575238D01*
X105902142Y-70765714D01*
X105902142Y-71099047D01*
X105854523Y-71289523D01*
X105759285Y-71384761D01*
X105664047Y-71432380D01*
X105473571Y-71432380D01*
X106283095Y-70527619D02*
X106330714Y-70480000D01*
X106425952Y-70432380D01*
X106664047Y-70432380D01*
X106759285Y-70480000D01*
X106806904Y-70527619D01*
X106854523Y-70622857D01*
X106854523Y-70718095D01*
X106806904Y-70860952D01*
X106235476Y-71432380D01*
X106854523Y-71432380D01*
%TO.C,R7*%
X92188333Y-72927380D02*
X91855000Y-72451190D01*
X91616904Y-72927380D02*
X91616904Y-71927380D01*
X91997857Y-71927380D01*
X92093095Y-71975000D01*
X92140714Y-72022619D01*
X92188333Y-72117857D01*
X92188333Y-72260714D01*
X92140714Y-72355952D01*
X92093095Y-72403571D01*
X91997857Y-72451190D01*
X91616904Y-72451190D01*
X92521666Y-71927380D02*
X93188333Y-71927380D01*
X92759761Y-72927380D01*
%TO.C,J1*%
X124807380Y-39118333D02*
X125521666Y-39118333D01*
X125664523Y-39165952D01*
X125759761Y-39261190D01*
X125807380Y-39404047D01*
X125807380Y-39499285D01*
X125807380Y-38118333D02*
X125807380Y-38689761D01*
X125807380Y-38404047D02*
X124807380Y-38404047D01*
X124950238Y-38499285D01*
X125045476Y-38594523D01*
X125093095Y-38689761D01*
%TO.C,Q4*%
X105949761Y-82957619D02*
X105854523Y-82910000D01*
X105759285Y-82814761D01*
X105616428Y-82671904D01*
X105521190Y-82624285D01*
X105425952Y-82624285D01*
X105473571Y-82862380D02*
X105378333Y-82814761D01*
X105283095Y-82719523D01*
X105235476Y-82529047D01*
X105235476Y-82195714D01*
X105283095Y-82005238D01*
X105378333Y-81910000D01*
X105473571Y-81862380D01*
X105664047Y-81862380D01*
X105759285Y-81910000D01*
X105854523Y-82005238D01*
X105902142Y-82195714D01*
X105902142Y-82529047D01*
X105854523Y-82719523D01*
X105759285Y-82814761D01*
X105664047Y-82862380D01*
X105473571Y-82862380D01*
X106759285Y-82195714D02*
X106759285Y-82862380D01*
X106521190Y-81814761D02*
X106283095Y-82529047D01*
X106902142Y-82529047D01*
%TO.C,J5*%
X65117380Y-39118333D02*
X65831666Y-39118333D01*
X65974523Y-39165952D01*
X66069761Y-39261190D01*
X66117380Y-39404047D01*
X66117380Y-39499285D01*
X65117380Y-38165952D02*
X65117380Y-38642142D01*
X65593571Y-38689761D01*
X65545952Y-38642142D01*
X65498333Y-38546904D01*
X65498333Y-38308809D01*
X65545952Y-38213571D01*
X65593571Y-38165952D01*
X65688809Y-38118333D01*
X65926904Y-38118333D01*
X66022142Y-38165952D01*
X66069761Y-38213571D01*
X66117380Y-38308809D01*
X66117380Y-38546904D01*
X66069761Y-38642142D01*
X66022142Y-38689761D01*
%TO.C,J3*%
X94397380Y-39128333D02*
X95111666Y-39128333D01*
X95254523Y-39175952D01*
X95349761Y-39271190D01*
X95397380Y-39414047D01*
X95397380Y-39509285D01*
X94397380Y-38747380D02*
X94397380Y-38128333D01*
X94778333Y-38461666D01*
X94778333Y-38318809D01*
X94825952Y-38223571D01*
X94873571Y-38175952D01*
X94968809Y-38128333D01*
X95206904Y-38128333D01*
X95302142Y-38175952D01*
X95349761Y-38223571D01*
X95397380Y-38318809D01*
X95397380Y-38604523D01*
X95349761Y-38699761D01*
X95302142Y-38747380D01*
%TO.C,J9*%
X83627380Y-92418333D02*
X84341666Y-92418333D01*
X84484523Y-92465952D01*
X84579761Y-92561190D01*
X84627380Y-92704047D01*
X84627380Y-92799285D01*
X84627380Y-91894523D02*
X84627380Y-91704047D01*
X84579761Y-91608809D01*
X84532142Y-91561190D01*
X84389285Y-91465952D01*
X84198809Y-91418333D01*
X83817857Y-91418333D01*
X83722619Y-91465952D01*
X83675000Y-91513571D01*
X83627380Y-91608809D01*
X83627380Y-91799285D01*
X83675000Y-91894523D01*
X83722619Y-91942142D01*
X83817857Y-91989761D01*
X84055952Y-91989761D01*
X84151190Y-91942142D01*
X84198809Y-91894523D01*
X84246428Y-91799285D01*
X84246428Y-91608809D01*
X84198809Y-91513571D01*
X84151190Y-91465952D01*
X84055952Y-91418333D01*
%TO.C,J8*%
X58076666Y-84262380D02*
X58076666Y-84976666D01*
X58029047Y-85119523D01*
X57933809Y-85214761D01*
X57790952Y-85262380D01*
X57695714Y-85262380D01*
X58695714Y-84690952D02*
X58600476Y-84643333D01*
X58552857Y-84595714D01*
X58505238Y-84500476D01*
X58505238Y-84452857D01*
X58552857Y-84357619D01*
X58600476Y-84310000D01*
X58695714Y-84262380D01*
X58886190Y-84262380D01*
X58981428Y-84310000D01*
X59029047Y-84357619D01*
X59076666Y-84452857D01*
X59076666Y-84500476D01*
X59029047Y-84595714D01*
X58981428Y-84643333D01*
X58886190Y-84690952D01*
X58695714Y-84690952D01*
X58600476Y-84738571D01*
X58552857Y-84786190D01*
X58505238Y-84881428D01*
X58505238Y-85071904D01*
X58552857Y-85167142D01*
X58600476Y-85214761D01*
X58695714Y-85262380D01*
X58886190Y-85262380D01*
X58981428Y-85214761D01*
X59029047Y-85167142D01*
X59076666Y-85071904D01*
X59076666Y-84881428D01*
X59029047Y-84786190D01*
X58981428Y-84738571D01*
X58886190Y-84690952D01*
%TO.C,R5*%
X92263333Y-67212380D02*
X91930000Y-66736190D01*
X91691904Y-67212380D02*
X91691904Y-66212380D01*
X92072857Y-66212380D01*
X92168095Y-66260000D01*
X92215714Y-66307619D01*
X92263333Y-66402857D01*
X92263333Y-66545714D01*
X92215714Y-66640952D01*
X92168095Y-66688571D01*
X92072857Y-66736190D01*
X91691904Y-66736190D01*
X93168095Y-66212380D02*
X92691904Y-66212380D01*
X92644285Y-66688571D01*
X92691904Y-66640952D01*
X92787142Y-66593333D01*
X93025238Y-66593333D01*
X93120476Y-66640952D01*
X93168095Y-66688571D01*
X93215714Y-66783809D01*
X93215714Y-67021904D01*
X93168095Y-67117142D01*
X93120476Y-67164761D01*
X93025238Y-67212380D01*
X92787142Y-67212380D01*
X92691904Y-67164761D01*
X92644285Y-67117142D01*
%TO.C,J7*%
X58076666Y-70927380D02*
X58076666Y-71641666D01*
X58029047Y-71784523D01*
X57933809Y-71879761D01*
X57790952Y-71927380D01*
X57695714Y-71927380D01*
X58457619Y-70927380D02*
X59124285Y-70927380D01*
X58695714Y-71927380D01*
%TO.C,R2*%
X82383333Y-70429046D02*
X82050000Y-69952856D01*
X81811904Y-70429046D02*
X81811904Y-69429046D01*
X82192857Y-69429046D01*
X82288095Y-69476666D01*
X82335714Y-69524285D01*
X82383333Y-69619523D01*
X82383333Y-69762380D01*
X82335714Y-69857618D01*
X82288095Y-69905237D01*
X82192857Y-69952856D01*
X81811904Y-69952856D01*
X82764285Y-69524285D02*
X82811904Y-69476666D01*
X82907142Y-69429046D01*
X83145238Y-69429046D01*
X83240476Y-69476666D01*
X83288095Y-69524285D01*
X83335714Y-69619523D01*
X83335714Y-69714761D01*
X83288095Y-69857618D01*
X82716666Y-70429046D01*
X83335714Y-70429046D01*
%TO.C,J2*%
X110212380Y-39128333D02*
X110926666Y-39128333D01*
X111069523Y-39175952D01*
X111164761Y-39271190D01*
X111212380Y-39414047D01*
X111212380Y-39509285D01*
X110307619Y-38699761D02*
X110260000Y-38652142D01*
X110212380Y-38556904D01*
X110212380Y-38318809D01*
X110260000Y-38223571D01*
X110307619Y-38175952D01*
X110402857Y-38128333D01*
X110498095Y-38128333D01*
X110640952Y-38175952D01*
X111212380Y-38747380D01*
X111212380Y-38128333D01*
%TO.C,J4*%
X78522380Y-39128333D02*
X79236666Y-39128333D01*
X79379523Y-39175952D01*
X79474761Y-39271190D01*
X79522380Y-39414047D01*
X79522380Y-39509285D01*
X78855714Y-38223571D02*
X79522380Y-38223571D01*
X78474761Y-38461666D02*
X79189047Y-38699761D01*
X79189047Y-38080714D01*
%TO.C,U2*%
X132588095Y-48347380D02*
X132588095Y-49156904D01*
X132635714Y-49252142D01*
X132683333Y-49299761D01*
X132778571Y-49347380D01*
X132969047Y-49347380D01*
X133064285Y-49299761D01*
X133111904Y-49252142D01*
X133159523Y-49156904D01*
X133159523Y-48347380D01*
X133588095Y-48442619D02*
X133635714Y-48395000D01*
X133730952Y-48347380D01*
X133969047Y-48347380D01*
X134064285Y-48395000D01*
X134111904Y-48442619D01*
X134159523Y-48537857D01*
X134159523Y-48633095D01*
X134111904Y-48775952D01*
X133540476Y-49347380D01*
X134159523Y-49347380D01*
%TO.C,R1*%
X82383333Y-64502380D02*
X82050000Y-64026190D01*
X81811904Y-64502380D02*
X81811904Y-63502380D01*
X82192857Y-63502380D01*
X82288095Y-63550000D01*
X82335714Y-63597619D01*
X82383333Y-63692857D01*
X82383333Y-63835714D01*
X82335714Y-63930952D01*
X82288095Y-63978571D01*
X82192857Y-64026190D01*
X81811904Y-64026190D01*
X83335714Y-64502380D02*
X82764285Y-64502380D01*
X83050000Y-64502380D02*
X83050000Y-63502380D01*
X82954761Y-63645238D01*
X82859523Y-63740476D01*
X82764285Y-63788095D01*
%TO.C,R8*%
X91908333Y-78642380D02*
X91575000Y-78166190D01*
X91336904Y-78642380D02*
X91336904Y-77642380D01*
X91717857Y-77642380D01*
X91813095Y-77690000D01*
X91860714Y-77737619D01*
X91908333Y-77832857D01*
X91908333Y-77975714D01*
X91860714Y-78070952D01*
X91813095Y-78118571D01*
X91717857Y-78166190D01*
X91336904Y-78166190D01*
X92479761Y-78070952D02*
X92384523Y-78023333D01*
X92336904Y-77975714D01*
X92289285Y-77880476D01*
X92289285Y-77832857D01*
X92336904Y-77737619D01*
X92384523Y-77690000D01*
X92479761Y-77642380D01*
X92670238Y-77642380D01*
X92765476Y-77690000D01*
X92813095Y-77737619D01*
X92860714Y-77832857D01*
X92860714Y-77880476D01*
X92813095Y-77975714D01*
X92765476Y-78023333D01*
X92670238Y-78070952D01*
X92479761Y-78070952D01*
X92384523Y-78118571D01*
X92336904Y-78166190D01*
X92289285Y-78261428D01*
X92289285Y-78451904D01*
X92336904Y-78547142D01*
X92384523Y-78594761D01*
X92479761Y-78642380D01*
X92670238Y-78642380D01*
X92765476Y-78594761D01*
X92813095Y-78547142D01*
X92860714Y-78451904D01*
X92860714Y-78261428D01*
X92813095Y-78166190D01*
X92765476Y-78118571D01*
X92670238Y-78070952D01*
%TO.C,Q3*%
X105949761Y-77242619D02*
X105854523Y-77195000D01*
X105759285Y-77099761D01*
X105616428Y-76956904D01*
X105521190Y-76909285D01*
X105425952Y-76909285D01*
X105473571Y-77147380D02*
X105378333Y-77099761D01*
X105283095Y-77004523D01*
X105235476Y-76814047D01*
X105235476Y-76480714D01*
X105283095Y-76290238D01*
X105378333Y-76195000D01*
X105473571Y-76147380D01*
X105664047Y-76147380D01*
X105759285Y-76195000D01*
X105854523Y-76290238D01*
X105902142Y-76480714D01*
X105902142Y-76814047D01*
X105854523Y-77004523D01*
X105759285Y-77099761D01*
X105664047Y-77147380D01*
X105473571Y-77147380D01*
X106235476Y-76147380D02*
X106854523Y-76147380D01*
X106521190Y-76528333D01*
X106664047Y-76528333D01*
X106759285Y-76575952D01*
X106806904Y-76623571D01*
X106854523Y-76718809D01*
X106854523Y-76956904D01*
X106806904Y-77052142D01*
X106759285Y-77099761D01*
X106664047Y-77147380D01*
X106378333Y-77147380D01*
X106283095Y-77099761D01*
X106235476Y-77052142D01*
%TO.C,R3*%
X92263333Y-60862380D02*
X91930000Y-60386190D01*
X91691904Y-60862380D02*
X91691904Y-59862380D01*
X92072857Y-59862380D01*
X92168095Y-59910000D01*
X92215714Y-59957619D01*
X92263333Y-60052857D01*
X92263333Y-60195714D01*
X92215714Y-60290952D01*
X92168095Y-60338571D01*
X92072857Y-60386190D01*
X91691904Y-60386190D01*
X92596666Y-59862380D02*
X93215714Y-59862380D01*
X92882380Y-60243333D01*
X93025238Y-60243333D01*
X93120476Y-60290952D01*
X93168095Y-60338571D01*
X93215714Y-60433809D01*
X93215714Y-60671904D01*
X93168095Y-60767142D01*
X93120476Y-60814761D01*
X93025238Y-60862380D01*
X92739523Y-60862380D01*
X92644285Y-60814761D01*
X92596666Y-60767142D01*
D12*
%TO.C,J6*%
X58695000Y-55950000D02*
X52695000Y-55950000D01*
X52695000Y-48630000D02*
X52695000Y-47870000D01*
X58695000Y-56190000D02*
X52695000Y-56190000D01*
X64065000Y-55870000D02*
X64065000Y-57140000D01*
X58695000Y-56070000D02*
X52695000Y-56070000D01*
X61355000Y-49520000D02*
X58695000Y-49520000D01*
X58695000Y-57200000D02*
X61355000Y-57200000D01*
X58695000Y-56250000D02*
X52695000Y-56250000D01*
X61355000Y-46920000D02*
X58695000Y-46920000D01*
X52695000Y-56250000D02*
X52695000Y-55490000D01*
X61752071Y-51170000D02*
X61355000Y-51170000D01*
X52695000Y-55490000D02*
X58695000Y-55490000D01*
X52695000Y-53710000D02*
X52695000Y-52950000D01*
X61752071Y-53710000D02*
X61355000Y-53710000D01*
X58695000Y-53710000D02*
X52695000Y-53710000D01*
X58695000Y-48630000D02*
X52695000Y-48630000D01*
X61752071Y-52950000D02*
X61355000Y-52950000D01*
X58695000Y-55830000D02*
X52695000Y-55830000D01*
X61355000Y-52060000D02*
X58695000Y-52060000D01*
X58695000Y-55710000D02*
X52695000Y-55710000D01*
X64065000Y-57140000D02*
X62795000Y-57140000D01*
X61752071Y-48630000D02*
X61355000Y-48630000D01*
X61685000Y-55490000D02*
X61355000Y-55490000D01*
X58695000Y-46920000D02*
X58695000Y-57200000D01*
X61685000Y-56250000D02*
X61355000Y-56250000D01*
X61752071Y-47870000D02*
X61355000Y-47870000D01*
X58695000Y-51170000D02*
X52695000Y-51170000D01*
X52695000Y-50410000D02*
X58695000Y-50410000D01*
X52695000Y-47870000D02*
X58695000Y-47870000D01*
X61752071Y-50410000D02*
X61355000Y-50410000D01*
X52695000Y-51170000D02*
X52695000Y-50410000D01*
X61355000Y-57200000D02*
X61355000Y-46920000D01*
X52695000Y-52950000D02*
X58695000Y-52950000D01*
X61355000Y-54600000D02*
X58695000Y-54600000D01*
X58695000Y-55590000D02*
X52695000Y-55590000D01*
%TO.C,D1*%
X101520000Y-63815000D02*
X101520000Y-60645000D01*
X101520000Y-60645000D02*
X97460000Y-60645000D01*
X97460000Y-63815000D02*
X101520000Y-63815000D01*
%TO.C,D3*%
X101520000Y-72710000D02*
X97460000Y-72710000D01*
X101520000Y-75880000D02*
X101520000Y-72710000D01*
X97460000Y-75880000D02*
X101520000Y-75880000D01*
%TO.C,D2*%
X97460000Y-70165000D02*
X101520000Y-70165000D01*
X101520000Y-66995000D02*
X97460000Y-66995000D01*
X101520000Y-70165000D02*
X101520000Y-66995000D01*
%TO.C,D4*%
X101520000Y-78425000D02*
X97460000Y-78425000D01*
X97460000Y-81595000D02*
X101520000Y-81595000D01*
X101520000Y-81595000D02*
X101520000Y-78425000D01*
%TO.C,R6*%
X83277064Y-80920000D02*
X81822936Y-80920000D01*
X83277064Y-79100000D02*
X81822936Y-79100000D01*
%TO.C,Q1*%
X106045000Y-63790000D02*
X105395000Y-63790000D01*
X106045000Y-60670000D02*
X105395000Y-60670000D01*
X106045000Y-63790000D02*
X107720000Y-63790000D01*
X106045000Y-60670000D02*
X106695000Y-60670000D01*
%TO.C,R4*%
X83277064Y-74993332D02*
X81822936Y-74993332D01*
X83277064Y-73173332D02*
X81822936Y-73173332D01*
%TO.C,Q2*%
X106045000Y-67020000D02*
X105395000Y-67020000D01*
X106045000Y-70140000D02*
X105395000Y-70140000D01*
X106045000Y-70140000D02*
X107720000Y-70140000D01*
X106045000Y-67020000D02*
X106695000Y-67020000D01*
%TO.C,R7*%
X91627936Y-75205000D02*
X93082064Y-75205000D01*
X91627936Y-73385000D02*
X93082064Y-73385000D01*
%TO.C,J1*%
X127245000Y-39070000D02*
X127245000Y-33070000D01*
X136575000Y-41730000D02*
X136575000Y-39070000D01*
X128005000Y-33070000D02*
X128005000Y-39070000D01*
X133975000Y-41730000D02*
X133975000Y-39070000D01*
X127905000Y-39070000D02*
X127905000Y-33070000D01*
X134865000Y-33070000D02*
X135625000Y-33070000D01*
X127545000Y-39070000D02*
X127545000Y-33070000D01*
X136575000Y-39070000D02*
X126295000Y-39070000D01*
X128895000Y-41730000D02*
X128895000Y-39070000D01*
X126355000Y-44440000D02*
X126355000Y-43170000D01*
X132325000Y-42127071D02*
X132325000Y-41730000D01*
X127785000Y-39070000D02*
X127785000Y-33070000D01*
X132325000Y-39070000D02*
X132325000Y-33070000D01*
X134865000Y-39070000D02*
X134865000Y-33070000D01*
X129785000Y-33070000D02*
X130545000Y-33070000D01*
X130545000Y-42127071D02*
X130545000Y-41730000D01*
X129785000Y-39070000D02*
X129785000Y-33070000D01*
X135625000Y-33070000D02*
X135625000Y-39070000D01*
X127245000Y-33070000D02*
X128005000Y-33070000D01*
X129785000Y-42127071D02*
X129785000Y-41730000D01*
X132325000Y-33070000D02*
X133085000Y-33070000D01*
X126295000Y-39070000D02*
X126295000Y-41730000D01*
X127245000Y-42060000D02*
X127245000Y-41730000D01*
X133085000Y-42127071D02*
X133085000Y-41730000D01*
X131435000Y-41730000D02*
X131435000Y-39070000D01*
X126295000Y-41730000D02*
X136575000Y-41730000D01*
X130545000Y-33070000D02*
X130545000Y-39070000D01*
X127425000Y-39070000D02*
X127425000Y-33070000D01*
X127665000Y-39070000D02*
X127665000Y-33070000D01*
X127625000Y-44440000D02*
X126355000Y-44440000D01*
X135625000Y-42127071D02*
X135625000Y-41730000D01*
X134865000Y-42127071D02*
X134865000Y-41730000D01*
X133085000Y-33070000D02*
X133085000Y-39070000D01*
X127305000Y-39070000D02*
X127305000Y-33070000D01*
X128005000Y-42060000D02*
X128005000Y-41730000D01*
%TO.C,Q4*%
X106045000Y-78450000D02*
X106695000Y-78450000D01*
X106045000Y-78450000D02*
X105395000Y-78450000D01*
X106045000Y-81570000D02*
X105395000Y-81570000D01*
X106045000Y-81570000D02*
X107720000Y-81570000D01*
%TO.C,J5*%
X70095000Y-42127071D02*
X70095000Y-41730000D01*
X73395000Y-33070000D02*
X73395000Y-39070000D01*
X67555000Y-39070000D02*
X67555000Y-33070000D01*
X75175000Y-33070000D02*
X75935000Y-33070000D01*
X75935000Y-33070000D02*
X75935000Y-39070000D01*
X67855000Y-39070000D02*
X67855000Y-33070000D01*
X67615000Y-39070000D02*
X67615000Y-33070000D01*
X72635000Y-39070000D02*
X72635000Y-33070000D01*
X67935000Y-44440000D02*
X66665000Y-44440000D01*
X72635000Y-42127071D02*
X72635000Y-41730000D01*
X67555000Y-42060000D02*
X67555000Y-41730000D01*
X70095000Y-33070000D02*
X70855000Y-33070000D01*
X76885000Y-39070000D02*
X66605000Y-39070000D01*
X71745000Y-41730000D02*
X71745000Y-39070000D01*
X75175000Y-42127071D02*
X75175000Y-41730000D01*
X68215000Y-39070000D02*
X68215000Y-33070000D01*
X73395000Y-42127071D02*
X73395000Y-41730000D01*
X67555000Y-33070000D02*
X68315000Y-33070000D01*
X67735000Y-39070000D02*
X67735000Y-33070000D01*
X68095000Y-39070000D02*
X68095000Y-33070000D01*
X69205000Y-41730000D02*
X69205000Y-39070000D01*
X72635000Y-33070000D02*
X73395000Y-33070000D01*
X66605000Y-41730000D02*
X76885000Y-41730000D01*
X70855000Y-42127071D02*
X70855000Y-41730000D01*
X66605000Y-39070000D02*
X66605000Y-41730000D01*
X74285000Y-41730000D02*
X74285000Y-39070000D01*
X68315000Y-42060000D02*
X68315000Y-41730000D01*
X75935000Y-42127071D02*
X75935000Y-41730000D01*
X67975000Y-39070000D02*
X67975000Y-33070000D01*
X70855000Y-33070000D02*
X70855000Y-39070000D01*
X68315000Y-33070000D02*
X68315000Y-39070000D01*
X70095000Y-39070000D02*
X70095000Y-33070000D01*
X66665000Y-44440000D02*
X66665000Y-43170000D01*
X76885000Y-41730000D02*
X76885000Y-39070000D01*
X75175000Y-39070000D02*
X75175000Y-33070000D01*
%TO.C,J3*%
X99375000Y-39080000D02*
X99375000Y-33080000D01*
X97015000Y-39080000D02*
X97015000Y-33080000D01*
X99375000Y-33080000D02*
X100135000Y-33080000D01*
X102675000Y-42137071D02*
X102675000Y-41740000D01*
X106165000Y-39080000D02*
X95885000Y-39080000D01*
X101915000Y-33080000D02*
X102675000Y-33080000D01*
X100135000Y-42137071D02*
X100135000Y-41740000D01*
X105215000Y-42137071D02*
X105215000Y-41740000D01*
X104455000Y-33080000D02*
X105215000Y-33080000D01*
X96895000Y-39080000D02*
X96895000Y-33080000D01*
X101915000Y-39080000D02*
X101915000Y-33080000D01*
X97595000Y-42070000D02*
X97595000Y-41740000D01*
X97495000Y-39080000D02*
X97495000Y-33080000D01*
X97595000Y-33080000D02*
X97595000Y-39080000D01*
X104455000Y-42137071D02*
X104455000Y-41740000D01*
X96835000Y-33080000D02*
X97595000Y-33080000D01*
X96835000Y-42070000D02*
X96835000Y-41740000D01*
X97135000Y-39080000D02*
X97135000Y-33080000D01*
X106165000Y-41740000D02*
X106165000Y-39080000D01*
X101025000Y-41740000D02*
X101025000Y-39080000D01*
X97255000Y-39080000D02*
X97255000Y-33080000D01*
X97375000Y-39080000D02*
X97375000Y-33080000D01*
X97215000Y-44450000D02*
X95945000Y-44450000D01*
X98485000Y-41740000D02*
X98485000Y-39080000D01*
X95945000Y-44450000D02*
X95945000Y-43180000D01*
X102675000Y-33080000D02*
X102675000Y-39080000D01*
X104455000Y-39080000D02*
X104455000Y-33080000D01*
X95885000Y-41740000D02*
X106165000Y-41740000D01*
X99375000Y-42137071D02*
X99375000Y-41740000D01*
X101915000Y-42137071D02*
X101915000Y-41740000D01*
X105215000Y-33080000D02*
X105215000Y-39080000D01*
X95885000Y-39080000D02*
X95885000Y-41740000D01*
X103565000Y-41740000D02*
X103565000Y-39080000D01*
X96835000Y-39080000D02*
X96835000Y-33080000D01*
X100135000Y-33080000D02*
X100135000Y-39080000D01*
%TO.C,J9*%
X75555000Y-89140000D02*
X75555000Y-91800000D01*
X83235000Y-91800000D02*
X83235000Y-89140000D01*
X77205000Y-97800000D02*
X76445000Y-97800000D01*
X72955000Y-91800000D02*
X83235000Y-91800000D01*
X81985000Y-91800000D02*
X81985000Y-97800000D01*
X82285000Y-97800000D02*
X81525000Y-97800000D01*
X83235000Y-89140000D02*
X72955000Y-89140000D01*
X74665000Y-91800000D02*
X74665000Y-97800000D01*
X79745000Y-88742929D02*
X79745000Y-89140000D01*
X82225000Y-91800000D02*
X82225000Y-97800000D01*
X81865000Y-91800000D02*
X81865000Y-97800000D01*
X74665000Y-88742929D02*
X74665000Y-89140000D01*
X73905000Y-97800000D02*
X73905000Y-91800000D01*
X77205000Y-91800000D02*
X77205000Y-97800000D01*
X79745000Y-91800000D02*
X79745000Y-97800000D01*
X77205000Y-88742929D02*
X77205000Y-89140000D01*
X72955000Y-89140000D02*
X72955000Y-91800000D01*
X78985000Y-88742929D02*
X78985000Y-89140000D01*
X81625000Y-91800000D02*
X81625000Y-97800000D01*
X81525000Y-97800000D02*
X81525000Y-91800000D01*
X82105000Y-91800000D02*
X82105000Y-97800000D01*
X73905000Y-88742929D02*
X73905000Y-89140000D01*
X78985000Y-97800000D02*
X78985000Y-91800000D01*
X76445000Y-97800000D02*
X76445000Y-91800000D01*
X80635000Y-89140000D02*
X80635000Y-91800000D01*
X82285000Y-88810000D02*
X82285000Y-89140000D01*
X78095000Y-89140000D02*
X78095000Y-91800000D01*
X83175000Y-86430000D02*
X83175000Y-87700000D01*
X81745000Y-91800000D02*
X81745000Y-97800000D01*
X74665000Y-97800000D02*
X73905000Y-97800000D01*
X81905000Y-86430000D02*
X83175000Y-86430000D01*
X79745000Y-97800000D02*
X78985000Y-97800000D01*
X76445000Y-88742929D02*
X76445000Y-89140000D01*
X82285000Y-91800000D02*
X82285000Y-97800000D01*
X81525000Y-88810000D02*
X81525000Y-89140000D01*
%TO.C,J8*%
X58695000Y-82500000D02*
X52695000Y-82500000D01*
X61685000Y-82160000D02*
X61355000Y-82160000D01*
X52695000Y-77080000D02*
X58695000Y-77080000D01*
X52695000Y-82160000D02*
X58695000Y-82160000D01*
X58695000Y-82860000D02*
X52695000Y-82860000D01*
X52695000Y-79620000D02*
X58695000Y-79620000D01*
X58695000Y-82260000D02*
X52695000Y-82260000D01*
X58695000Y-73590000D02*
X58695000Y-83870000D01*
X61355000Y-81270000D02*
X58695000Y-81270000D01*
X61752071Y-75300000D02*
X61355000Y-75300000D01*
X52695000Y-82920000D02*
X52695000Y-82160000D01*
X61752071Y-79620000D02*
X61355000Y-79620000D01*
X52695000Y-74540000D02*
X58695000Y-74540000D01*
X52695000Y-80380000D02*
X52695000Y-79620000D01*
X61355000Y-78730000D02*
X58695000Y-78730000D01*
X61752071Y-77840000D02*
X61355000Y-77840000D01*
X58695000Y-82620000D02*
X52695000Y-82620000D01*
X52695000Y-77840000D02*
X52695000Y-77080000D01*
X61355000Y-83870000D02*
X61355000Y-73590000D01*
X58695000Y-75300000D02*
X52695000Y-75300000D01*
X58695000Y-80380000D02*
X52695000Y-80380000D01*
X58695000Y-82920000D02*
X52695000Y-82920000D01*
X61752071Y-77080000D02*
X61355000Y-77080000D01*
X61355000Y-73590000D02*
X58695000Y-73590000D01*
X58695000Y-77840000D02*
X52695000Y-77840000D01*
X52695000Y-75300000D02*
X52695000Y-74540000D01*
X64065000Y-82540000D02*
X64065000Y-83810000D01*
X61752071Y-74540000D02*
X61355000Y-74540000D01*
X58695000Y-83870000D02*
X61355000Y-83870000D01*
X61752071Y-80380000D02*
X61355000Y-80380000D01*
X61355000Y-76190000D02*
X58695000Y-76190000D01*
X58695000Y-82380000D02*
X52695000Y-82380000D01*
X58695000Y-82740000D02*
X52695000Y-82740000D01*
X64065000Y-83810000D02*
X62795000Y-83810000D01*
X61685000Y-82920000D02*
X61355000Y-82920000D01*
%TO.C,R5*%
X91702936Y-69490000D02*
X93157064Y-69490000D01*
X91702936Y-67670000D02*
X93157064Y-67670000D01*
%TO.C,J7*%
X58695000Y-67045000D02*
X52695000Y-67045000D01*
X58695000Y-69285000D02*
X52695000Y-69285000D01*
X58695000Y-68925000D02*
X52695000Y-68925000D01*
X52695000Y-66285000D02*
X58695000Y-66285000D01*
X61752071Y-66285000D02*
X61355000Y-66285000D01*
X61752071Y-61965000D02*
X61355000Y-61965000D01*
X58695000Y-61965000D02*
X52695000Y-61965000D01*
X61355000Y-62855000D02*
X58695000Y-62855000D01*
X58695000Y-69165000D02*
X52695000Y-69165000D01*
X58695000Y-69525000D02*
X52695000Y-69525000D01*
X61355000Y-70535000D02*
X61355000Y-60255000D01*
X58695000Y-64505000D02*
X52695000Y-64505000D01*
X52695000Y-61205000D02*
X58695000Y-61205000D01*
X61355000Y-67935000D02*
X58695000Y-67935000D01*
X61752071Y-64505000D02*
X61355000Y-64505000D01*
X58695000Y-69585000D02*
X52695000Y-69585000D01*
X61752071Y-67045000D02*
X61355000Y-67045000D01*
X52695000Y-64505000D02*
X52695000Y-63745000D01*
X58695000Y-69405000D02*
X52695000Y-69405000D01*
X61355000Y-60255000D02*
X58695000Y-60255000D01*
X64065000Y-70475000D02*
X62795000Y-70475000D01*
X58695000Y-60255000D02*
X58695000Y-70535000D01*
X52695000Y-61965000D02*
X52695000Y-61205000D01*
X61685000Y-68825000D02*
X61355000Y-68825000D01*
X52695000Y-68825000D02*
X58695000Y-68825000D01*
X61752071Y-61205000D02*
X61355000Y-61205000D01*
X61685000Y-69585000D02*
X61355000Y-69585000D01*
X61355000Y-65395000D02*
X58695000Y-65395000D01*
X52695000Y-63745000D02*
X58695000Y-63745000D01*
X64065000Y-69205000D02*
X64065000Y-70475000D01*
X58695000Y-70535000D02*
X61355000Y-70535000D01*
X58695000Y-69045000D02*
X52695000Y-69045000D01*
X52695000Y-69585000D02*
X52695000Y-68825000D01*
X61752071Y-63745000D02*
X61355000Y-63745000D01*
X52695000Y-67045000D02*
X52695000Y-66285000D01*
%TO.C,R2*%
X83277064Y-69066666D02*
X81822936Y-69066666D01*
X83277064Y-67246666D02*
X81822936Y-67246666D01*
%TO.C,J2*%
X112710000Y-39080000D02*
X112710000Y-33080000D01*
X115190000Y-33080000D02*
X115950000Y-33080000D01*
X113410000Y-42070000D02*
X113410000Y-41740000D01*
X111760000Y-44450000D02*
X111760000Y-43180000D01*
X121030000Y-33080000D02*
X121030000Y-39080000D01*
X115190000Y-42137071D02*
X115190000Y-41740000D01*
X115950000Y-42137071D02*
X115950000Y-41740000D01*
X117730000Y-33080000D02*
X118490000Y-33080000D01*
X120270000Y-42137071D02*
X120270000Y-41740000D01*
X120270000Y-33080000D02*
X121030000Y-33080000D01*
X118490000Y-33080000D02*
X118490000Y-39080000D01*
X117730000Y-39080000D02*
X117730000Y-33080000D01*
X113030000Y-44450000D02*
X111760000Y-44450000D01*
X111700000Y-41740000D02*
X121980000Y-41740000D01*
X111700000Y-39080000D02*
X111700000Y-41740000D01*
X112950000Y-39080000D02*
X112950000Y-33080000D01*
X112650000Y-42070000D02*
X112650000Y-41740000D01*
X112650000Y-33080000D02*
X113410000Y-33080000D01*
X113410000Y-33080000D02*
X113410000Y-39080000D01*
X117730000Y-42137071D02*
X117730000Y-41740000D01*
X116840000Y-41740000D02*
X116840000Y-39080000D01*
X121980000Y-41740000D02*
X121980000Y-39080000D01*
X121030000Y-42137071D02*
X121030000Y-41740000D01*
X113070000Y-39080000D02*
X113070000Y-33080000D01*
X118490000Y-42137071D02*
X118490000Y-41740000D01*
X119380000Y-41740000D02*
X119380000Y-39080000D01*
X112650000Y-39080000D02*
X112650000Y-33080000D01*
X115950000Y-33080000D02*
X115950000Y-39080000D01*
X114300000Y-41740000D02*
X114300000Y-39080000D01*
X121980000Y-39080000D02*
X111700000Y-39080000D01*
X115190000Y-39080000D02*
X115190000Y-33080000D01*
X112830000Y-39080000D02*
X112830000Y-33080000D01*
X113310000Y-39080000D02*
X113310000Y-33080000D01*
X120270000Y-39080000D02*
X120270000Y-33080000D01*
X113190000Y-39080000D02*
X113190000Y-33080000D01*
%TO.C,J4*%
X83500000Y-33080000D02*
X84260000Y-33080000D01*
X85150000Y-41740000D02*
X85150000Y-39080000D01*
X86040000Y-33080000D02*
X86800000Y-33080000D01*
X86040000Y-39080000D02*
X86040000Y-33080000D01*
X80960000Y-33080000D02*
X81720000Y-33080000D01*
X81720000Y-33080000D02*
X81720000Y-39080000D01*
X88580000Y-42137071D02*
X88580000Y-41740000D01*
X81140000Y-39080000D02*
X81140000Y-33080000D01*
X86040000Y-42137071D02*
X86040000Y-41740000D01*
X87690000Y-41740000D02*
X87690000Y-39080000D01*
X86800000Y-33080000D02*
X86800000Y-39080000D01*
X83500000Y-42137071D02*
X83500000Y-41740000D01*
X80010000Y-41740000D02*
X90290000Y-41740000D01*
X83500000Y-39080000D02*
X83500000Y-33080000D01*
X81260000Y-39080000D02*
X81260000Y-33080000D01*
X88580000Y-33080000D02*
X89340000Y-33080000D01*
X89340000Y-42137071D02*
X89340000Y-41740000D01*
X88580000Y-39080000D02*
X88580000Y-33080000D01*
X81020000Y-39080000D02*
X81020000Y-33080000D01*
X89340000Y-33080000D02*
X89340000Y-39080000D01*
X81500000Y-39080000D02*
X81500000Y-33080000D01*
X81380000Y-39080000D02*
X81380000Y-33080000D01*
X80010000Y-39080000D02*
X80010000Y-41740000D01*
X80070000Y-44450000D02*
X80070000Y-43180000D01*
X90290000Y-41740000D02*
X90290000Y-39080000D01*
X84260000Y-42137071D02*
X84260000Y-41740000D01*
X90290000Y-39080000D02*
X80010000Y-39080000D01*
X82610000Y-41740000D02*
X82610000Y-39080000D01*
X80960000Y-42070000D02*
X80960000Y-41740000D01*
X80960000Y-39080000D02*
X80960000Y-33080000D01*
X81620000Y-39080000D02*
X81620000Y-33080000D01*
X81720000Y-42070000D02*
X81720000Y-41740000D01*
X86800000Y-42137071D02*
X86800000Y-41740000D01*
X81340000Y-44450000D02*
X80070000Y-44450000D01*
X84260000Y-33080000D02*
X84260000Y-39080000D01*
%TO.C,U2*%
X129413000Y-88265000D02*
X129413000Y-85725000D01*
X127000000Y-83185000D02*
X124330000Y-83185000D01*
X139700000Y-52705000D02*
X142370000Y-52705000D01*
X137287000Y-88265000D02*
X137287000Y-85725000D01*
X124333000Y-85725000D02*
X129413000Y-85725000D01*
X127000000Y-55245000D02*
X127000000Y-52705000D01*
X142367000Y-85725000D02*
X142370000Y-52705000D01*
X142367000Y-52705000D02*
X127000000Y-52705000D01*
X127000000Y-52705000D02*
X124333000Y-52705000D01*
X139700000Y-83185000D02*
X142370000Y-83185000D01*
X137287000Y-85725000D02*
X142367000Y-85725000D01*
X124333000Y-52705000D02*
X124333000Y-85725000D01*
X129413000Y-88265000D02*
X137287000Y-88265000D01*
X127000000Y-55245000D02*
X127000000Y-83185000D01*
X139700000Y-80645000D02*
X142370000Y-80645000D01*
X139700000Y-52705000D02*
X139700000Y-83185000D01*
%TO.C,R1*%
X83277064Y-63140000D02*
X81822936Y-63140000D01*
X83277064Y-61320000D02*
X81822936Y-61320000D01*
%TO.C,R8*%
X91347936Y-80920000D02*
X92802064Y-80920000D01*
X91347936Y-79100000D02*
X92802064Y-79100000D01*
%TO.C,Q3*%
X106045000Y-72735000D02*
X106695000Y-72735000D01*
X106045000Y-75855000D02*
X105395000Y-75855000D01*
X106045000Y-72735000D02*
X105395000Y-72735000D01*
X106045000Y-75855000D02*
X107720000Y-75855000D01*
%TO.C,R3*%
X91702936Y-61320000D02*
X93157064Y-61320000D01*
X91702936Y-63140000D02*
X93157064Y-63140000D01*
%TD*%
%LPC*%
D13*
%TO.C,J6*%
X62795000Y-55870000D03*
D14*
X62795000Y-53330000D03*
X62795000Y-50790000D03*
X62795000Y-48250000D03*
%TD*%
D15*
%TO.C,D1*%
X100547500Y-62230000D03*
X97572500Y-62230000D03*
%TD*%
%TO.C,D3*%
X100547500Y-74295000D03*
X97572500Y-74295000D03*
%TD*%
%TO.C,D2*%
X100547500Y-68580000D03*
X97572500Y-68580000D03*
%TD*%
%TO.C,D4*%
X100547500Y-80010000D03*
X97572500Y-80010000D03*
%TD*%
D16*
%TO.C,H4*%
X59055000Y-93345000D03*
%TD*%
%TO.C,H3*%
X144145000Y-93980000D03*
%TD*%
%TO.C,H2*%
X144145000Y-38735000D03*
%TD*%
%TO.C,H1*%
X58420000Y-38735000D03*
%TD*%
D17*
%TO.C,R6*%
X84100000Y-80010000D03*
X81000000Y-80010000D03*
%TD*%
D18*
%TO.C,Q1*%
X106982500Y-63180000D03*
X106982500Y-61280000D03*
X105107500Y-62230000D03*
%TD*%
D17*
%TO.C,R4*%
X84100000Y-74083332D03*
X81000000Y-74083332D03*
%TD*%
D18*
%TO.C,Q2*%
X106982500Y-69530000D03*
X106982500Y-67630000D03*
X105107500Y-68580000D03*
%TD*%
D19*
%TO.C,R7*%
X90805000Y-74295000D03*
X93905000Y-74295000D03*
%TD*%
D13*
%TO.C,J1*%
X127625000Y-43170000D03*
D14*
X130165000Y-43170000D03*
X132705000Y-43170000D03*
X135245000Y-43170000D03*
%TD*%
D18*
%TO.C,Q4*%
X106982500Y-80960000D03*
X106982500Y-79060000D03*
X105107500Y-80010000D03*
%TD*%
D13*
%TO.C,J5*%
X67935000Y-43170000D03*
D14*
X70475000Y-43170000D03*
X73015000Y-43170000D03*
X75555000Y-43170000D03*
%TD*%
D13*
%TO.C,J3*%
X97215000Y-43180000D03*
D14*
X99755000Y-43180000D03*
X102295000Y-43180000D03*
X104835000Y-43180000D03*
%TD*%
D13*
%TO.C,J9*%
X81905000Y-87700000D03*
D14*
X79365000Y-87700000D03*
X76825000Y-87700000D03*
X74285000Y-87700000D03*
%TD*%
D13*
%TO.C,J8*%
X62795000Y-82540000D03*
D14*
X62795000Y-80000000D03*
X62795000Y-77460000D03*
X62795000Y-74920000D03*
%TD*%
D19*
%TO.C,R5*%
X90880000Y-68580000D03*
X93980000Y-68580000D03*
%TD*%
D13*
%TO.C,J7*%
X62795000Y-69205000D03*
D14*
X62795000Y-66665000D03*
X62795000Y-64125000D03*
X62795000Y-61585000D03*
%TD*%
D17*
%TO.C,R2*%
X84100000Y-68156666D03*
X81000000Y-68156666D03*
%TD*%
D13*
%TO.C,J2*%
X113030000Y-43180000D03*
D14*
X115570000Y-43180000D03*
X118110000Y-43180000D03*
X120650000Y-43180000D03*
%TD*%
D13*
%TO.C,J4*%
X81340000Y-43180000D03*
D14*
X83880000Y-43180000D03*
X86420000Y-43180000D03*
X88960000Y-43180000D03*
%TD*%
D20*
%TO.C,U2*%
X140970000Y-81915000D03*
D21*
X140970000Y-79375000D03*
X140970000Y-76835000D03*
X140970000Y-74295000D03*
X140970000Y-71755000D03*
X140970000Y-69215000D03*
X140970000Y-66675000D03*
X140970000Y-64135000D03*
X140970000Y-61595000D03*
X140970000Y-59055000D03*
X140970000Y-56515000D03*
X140970000Y-53975000D03*
X125730000Y-53975000D03*
X125730000Y-56515000D03*
X125730000Y-59055000D03*
X125730000Y-61595000D03*
X125730000Y-64135000D03*
X125730000Y-66675000D03*
X125730000Y-69215000D03*
X125730000Y-71755000D03*
X125730000Y-74295000D03*
X125730000Y-76835000D03*
X125730000Y-79375000D03*
X125730000Y-81915000D03*
%TD*%
D17*
%TO.C,R1*%
X84100000Y-62230000D03*
X81000000Y-62230000D03*
%TD*%
D19*
%TO.C,R8*%
X90525000Y-80010000D03*
X93625000Y-80010000D03*
%TD*%
D18*
%TO.C,Q3*%
X106982500Y-75245000D03*
X106982500Y-73345000D03*
X105107500Y-74295000D03*
%TD*%
D19*
%TO.C,R3*%
X90880000Y-62230000D03*
X93980000Y-62230000D03*
%TD*%
M02*
